{
	"asset":{
		"generator":"Khronos glTF Blender I/O v5.0.21",
		"version":"2.0"
	},
	"scene":0,
	"scenes":[
		{
			"name":"Scene",
			"nodes":[
				69
			]
		}
	],
	"nodes":[
		{
			"name":"mixamorig:HeadTop_End",
			"rotation":[
				0,
				6.277787131223087e-25,
				3.15291926598734e-26,
				1
			],
			"translation":[
				0,
				31.158004760742188,
				3.7294998168945312
			]
		},
		{
			"name":"mixamorig:LeftEye",
			"rotation":[
				0,
				6.277787131223087e-25,
				3.15291926598734e-26,
				1
			],
			"translation":[
				4.36460018157959,
				5.593322277069092,
				8.907098770141602
			]
		},
		{
			"name":"mixamorig:RightEye",
			"rotation":[
				0,
				6.277787131223087e-25,
				3.15291926598734e-26,
				1
			],
			"translation":[
				-4.364699840545654,
				5.592910289764404,
				8.907098770141602
			]
		},
		{
			"children":[
				0,
				1,
				2
			],
			"name":"mixamorig:Head",
			"rotation":[
				-1.3207589688590815e-08,
				4.522287627180456e-25,
				-4.298258525668675e-25,
				1
			],
			"translation":[
				0,
				10.035995483398438,
				2.683300018310547
			]
		},
		{
			"children":[
				3
			],
			"name":"mixamorig:Neck",
			"rotation":[
				-3.552713678800501e-15,
				4.522287627180456e-25,
				-4.298258525668675e-25,
				1
			],
			"translation":[
				0,
				23.573394775390625,
				-4.474100112915039
			]
		},
		{
			"name":"mixamorig:LeftHandThumb4",
			"rotation":[
				-2.980232594040899e-08,
				3.5157427191734314e-07,
				1.809094101190567e-07,
				1
			],
			"scale":[
				1.0000001192092896,
				0.9999999403953552,
				0.9999999403953552
			],
			"translation":[
				6.4373016357421875e-06,
				4.613994598388672,
				1.4543533325195312e-05
			]
		},
		{
			"children":[
				5
			],
			"name":"mixamorig:LeftHandThumb3",
			"rotation":[
				2.738088369369507e-07,
				-7.404015036627243e-07,
				-4.7474168241024017e-07,
				1
			],
			"scale":[
				1,
				1,
				0.9999999403953552
			],
			"translation":[
				5.0067901611328125e-06,
				2.330005645751953,
				-1.7881393432617188e-07
			]
		},
		{
			"children":[
				6
			],
			"name":"mixamorig:LeftHandThumb2",
			"rotation":[
				1.2498351225076476e-06,
				1.0705554132073303e-06,
				6.661285851805587e-07,
				1
			],
			"scale":[
				0.9999999403953552,
				0.9999998211860657,
				0.9999998807907104
			],
			"translation":[
				-3.4570693969726562e-06,
				1.9373914003372192,
				1.4871358871459961e-05
			]
		},
		{
			"children":[
				7
			],
			"name":"mixamorig:LeftHandThumb1",
			"rotation":[
				0.21699166297912598,
				0.07166682183742523,
				0.25329774618148804,
				0.9400100111961365
			],
			"scale":[
				0.9999998211860657,
				0.9999999403953552,
				0.9999998807907104
			],
			"translation":[
				-5.114400386810303,
				4.2273030281066895,
				0.25391122698783875
			]
		},
		{
			"name":"mixamorig:LeftHandIndex4",
			"rotation":[
				-1.2998748926554765e-16,
				2.910464230732046e-11,
				2.375925384169239e-14,
				1
			],
			"scale":[
				0.9999999403953552,
				0.9999999403953552,
				0.9999999403953552
			],
			"translation":[
				-3.3794253795349505e-07,
				4.387293815612793,
				1.1519278814375866e-05
			]
		},
		{
			"children":[
				9
			],
			"name":"mixamorig:LeftHandIndex3",
			"rotation":[
				-5.848203431940702e-12,
				-6.2282197177410126e-09,
				-6.265345575684478e-09,
				1
			],
			"scale":[
				0.9999999403953552,
				0.9999999403953552,
				0.9999999403953552
			],
			"translation":[
				-6.4485448092455044e-09,
				3.002589464187622,
				1.154006713477429e-05
			]
		},
		{
			"children":[
				10
			],
			"name":"mixamorig:LeftHandIndex2",
			"rotation":[
				4.807185760569155e-10,
				-4.409230314195156e-09,
				1.613419442492159e-08,
				1
			],
			"scale":[
				0.9999999403953552,
				0.9999999403953552,
				0.9999999403953552
			],
			"translation":[
				-5.69971803088265e-08,
				2.4556002616882324,
				1.1632854693743866e-05
			]
		},
		{
			"children":[
				11
			],
			"name":"mixamorig:LeftHandIndex1",
			"rotation":[
				-0.002173586981371045,
				-1.6214064757491542e-08,
				-0.0010912192519754171,
				0.9999970197677612
			],
			"scale":[
				1,
				0.9999999403953552,
				1
			],
			"translation":[
				-2.35640025138855,
				11.078700065612793,
				0.08541261404752731
			]
		},
		{
			"name":"mixamorig:LeftHandMiddle4",
			"rotation":[
				-1.97758476261356e-16,
				-1.4551915228366852e-11,
				-3.191891195797325e-15,
				1
			],
			"scale":[
				1,
				0.9999999403953552,
				1
			],
			"translation":[
				3.725290298461914e-07,
				4.647387981414795,
				2.4060718715190887e-06
			]
		},
		{
			"children":[
				13
			],
			"name":"mixamorig:LeftHandMiddle3",
			"rotation":[
				-2.11638222832861e-16,
				-1.4551915228366852e-11,
				-3.19397892025407e-15,
				1
			],
			"scale":[
				1,
				0.9999999403953552,
				1
			],
			"translation":[
				3.725290298461914e-07,
				2.9993929862976074,
				2.4060718715190887e-06
			]
		},
		{
			"children":[
				14
			],
			"name":"mixamorig:LeftHandMiddle2",
			"rotation":[
				-4.6554687882505164e-10,
				-1.455194124921899e-11,
				1.2503209578795804e-10,
				1
			],
			"scale":[
				1,
				0.9999999403953552,
				1
			],
			"translation":[
				3.5223342820245307e-07,
				3.1130099296569824,
				2.3305051399802323e-06
			]
		},
		{
			"children":[
				15
			],
			"name":"mixamorig:LeftHandMiddle1",
			"rotation":[
				-0.002173586282879114,
				-4.0495827136055595e-08,
				-0.0010912230936810374,
				0.9999970197677612
			],
			"translation":[
				0.024099960923194885,
				11.042704582214355,
				-0.047983210533857346
			]
		},
		{
			"name":"mixamorig:LeftHandRing4",
			"rotation":[
				-3.0531133177191805e-16,
				-1.4551915228366852e-11,
				1.842276331487369e-15,
				1
			],
			"scale":[
				1,
				0.9999999403953552,
				1
			],
			"translation":[
				8.493661880493164e-07,
				4.015308380126953,
				-8.551869541406631e-06
			]
		},
		{
			"children":[
				17
			],
			"name":"mixamorig:LeftHandRing3",
			"rotation":[
				-3.0499128566675393e-16,
				-1.4551915228366852e-11,
				2.1852772412803145e-15,
				1
			],
			"scale":[
				1,
				0.9999999403953552,
				1
			],
			"translation":[
				8.493660743624787e-07,
				2.6785008907318115,
				-8.551869541406631e-06
			]
		},
		{
			"children":[
				18
			],
			"name":"mixamorig:LeftHandRing2",
			"rotation":[
				-4.776052886512616e-10,
				-1.455117016463392e-11,
				-1.2797061188507541e-08,
				1
			],
			"scale":[
				1,
				0.9999999403953552,
				1
			],
			"translation":[
				1.007548007692094e-06,
				2.984797954559326,
				-8.628957402834203e-06
			]
		},
		{
			"children":[
				19
			],
			"name":"mixamorig:LeftHandRing1",
			"rotation":[
				-0.002173586282879114,
				-4.0467746487138356e-08,
				-0.0010912101715803146,
				0.9999970197677612
			],
			"translation":[
				2.847701072692871,
				10.709111213684082,
				0.06961023807525635
			]
		},
		{
			"name":"mixamorig:LeftHandPinky4",
			"rotation":[
				1.734723475976807e-18,
				-1.4551915228366852e-11,
				1.6705387073656652e-15,
				1
			],
			"scale":[
				1,
				0.9999999403953552,
				1
			],
			"translation":[
				3.2782554626464844e-07,
				3.731090545654297,
				-2.6258639991283417e-05
			]
		},
		{
			"children":[
				21
			],
			"name":"mixamorig:LeftHandPinky3",
			"rotation":[
				1.5678869366891493e-17,
				-4.3655745685100555e-11,
				1.7416494526282687e-15,
				1
			],
			"scale":[
				1,
				0.9999999403953552,
				1
			],
			"translation":[
				3.27825517842939e-07,
				2.3384056091308594,
				-2.6258639991283417e-05
			]
		},
		{
			"children":[
				22
			],
			"name":"mixamorig:LeftHandPinky2",
			"rotation":[
				-4.475136927695189e-10,
				-1.4553098309777468e-11,
				1.9449968746698687e-08,
				1
			],
			"scale":[
				1,
				0.9999999403953552,
				1
			],
			"translation":[
				1.1784140951931477e-07,
				2.5483973026275635,
				-2.6329298634664156e-05
			]
		},
		{
			"children":[
				23
			],
			"name":"mixamorig:LeftHandPinky1",
			"rotation":[
				-0.002173586282879114,
				-4.053777757917487e-08,
				-0.0010912424186244607,
				0.9999970197677612
			],
			"translation":[
				5.545401573181152,
				9.382404327392578,
				0.02680828422307968
			]
		},
		{
			"children":[
				8,
				12,
				16,
				20,
				24
			],
			"name":"mixamorig:LeftHand",
			"rotation":[
				0.002173077082261443,
				-0.00046656071208417416,
				0.0010922198416665196,
				0.9999969601631165
			],
			"translation":[
				3.7731402358076593e-07,
				27.51819610595703,
				-1.5112234905245714e-05
			]
		},
		{
			"children":[
				25
			],
			"name":"mixamorig:LeftForeArm",
			"rotation":[
				-7.450584149637507e-09,
				-9.000160616778885e-09,
				2.1385066162338262e-08,
				1
			],
			"translation":[
				1.432039198334678e-08,
				27.263694763183594,
				-1.5626488675479777e-05
			]
		},
		{
			"children":[
				26
			],
			"name":"mixamorig:LeftArm",
			"rotation":[
				-0.08703106641769409,
				-0.013271140865981579,
				0.15016137063503265,
				0.9847339987754822
			],
			"scale":[
				1.0000001192092896,
				1.0000001192092896,
				1.0000001192092896
			],
			"translation":[
				7.152557373046875e-07,
				6.437300682067871,
				-2.9074748454149812e-05
			]
		},
		{
			"children":[
				27
			],
			"name":"mixamorig:LeftShoulder",
			"rotation":[
				0.46743741631507874,
				0.5305677652359009,
				-0.6043276190757751,
				0.367135226726532
			],
			"scale":[
				1,
				1.0000001192092896,
				1
			],
			"translation":[
				6.172299385070801,
				17.85699462890625,
				-2.6243996620178223
			]
		},
		{
			"name":"mixamorig:RightHandThumb4",
			"rotation":[
				-2.0489096641540527e-08,
				-2.4423934519290924e-07,
				-1.0814983397722244e-07,
				1
			],
			"scale":[
				1,
				1,
				0.9999999403953552
			],
			"translation":[
				-5.0067901611328125e-06,
				4.614009380340576,
				1.6570091247558594e-05
			]
		},
		{
			"children":[
				29
			],
			"name":"mixamorig:RightHandThumb3",
			"rotation":[
				-2.216547869693386e-07,
				-4.26545796017308e-07,
				-2.3294707318655128e-07,
				1
			],
			"scale":[
				0.9999999403953552,
				1,
				0.9999999403953552
			],
			"translation":[
				2.384185791015625e-07,
				2.330099105834961,
				3.331899642944336e-05
			]
		},
		{
			"children":[
				30
			],
			"name":"mixamorig:RightHandThumb2",
			"rotation":[
				1.5590338762194733e-06,
				1.2423842008502106e-06,
				6.390037015080452e-07,
				1
			],
			"scale":[
				1.0000001192092896,
				1,
				1.0000001192092896
			],
			"translation":[
				0,
				1.9374990463256836,
				-8.165836334228516e-06
			]
		},
		{
			"children":[
				31
			],
			"name":"mixamorig:RightHandThumb1",
			"rotation":[
				0.2177368402481079,
				-0.0688227191567421,
				-0.2526582181453705,
				0.9402222633361816
			],
			"scale":[
				0.9999999403953552,
				1.0000001192092896,
				0.9999999403953552
			],
			"translation":[
				5.114401340484619,
				4.227188587188721,
				0.2539951801300049
			]
		},
		{
			"name":"mixamorig:RightHandIndex4",
			"rotation":[
				1.988437372250256e-15,
				-1.4553133004246988e-11,
				2.5174744152376208e-14,
				1
			],
			"scale":[
				1,
				1,
				0.9999999403953552
			],
			"translation":[
				-1.1442466529842932e-07,
				4.387316703796387,
				1.3427750673145056e-05
			]
		},
		{
			"children":[
				33
			],
			"name":"mixamorig:RightHandIndex3",
			"rotation":[
				5.342554523779519e-12,
				-6.271877683872162e-09,
				-6.265345575684478e-09,
				1
			],
			"scale":[
				1,
				1,
				0.9999999403953552
			],
			"translation":[
				8.453753252979368e-09,
				3.002589464187622,
				1.3407121514319442e-05
			]
		},
		{
			"children":[
				34
			],
			"name":"mixamorig:RightHandIndex2",
			"rotation":[
				-6.908858485310532e-10,
				-4.438336809187149e-09,
				-8.91061091579104e-09,
				1
			],
			"scale":[
				1,
				1,
				0.9999999403953552
			],
			"translation":[
				1.6213880371651612e-07,
				2.455599784851074,
				1.3280491657496896e-05
			]
		},
		{
			"children":[
				35
			],
			"name":"mixamorig:RightHandIndex1",
			"rotation":[
				-0.0021735052578151226,
				-8.18984204897788e-08,
				0.0010912190191447735,
				0.9999970197677612
			],
			"scale":[
				0.9999999403953552,
				1,
				1
			],
			"translation":[
				2.356400728225708,
				11.07869815826416,
				0.08499922603368759
			]
		},
		{
			"name":"mixamorig:RightHandMiddle4",
			"rotation":[
				-3.524958103184872e-15,
				1.4551915228366852e-11,
				2.4286127009314074e-17,
				1
			],
			"scale":[
				1.0000001192092896,
				1,
				1
			],
			"translation":[
				-7.450580596923828e-08,
				4.647494316101074,
				-2.9962975531816483e-06
			]
		},
		{
			"children":[
				37
			],
			"name":"mixamorig:RightHandMiddle3",
			"rotation":[
				-3.4971921514156392e-15,
				1.4551915228366852e-11,
				1.2017656306349098e-17,
				1
			],
			"scale":[
				1.0000001192092896,
				1,
				1
			],
			"translation":[
				-7.450579886381092e-08,
				2.99939227104187,
				-2.9962975531816483e-06
			]
		},
		{
			"children":[
				38
			],
			"name":"mixamorig:RightHandMiddle2",
			"rotation":[
				-4.657548235975639e-10,
				-1.4551923901984232e-11,
				1.0931065080876934e-10,
				1
			],
			"scale":[
				1,
				0.9999999403953552,
				0.9999999403953552
			],
			"translation":[
				-9.224900310300654e-08,
				3.113009214401245,
				-3.071898390771821e-06
			]
		},
		{
			"children":[
				39
			],
			"name":"mixamorig:RightHandMiddle1",
			"rotation":[
				-0.0021735054906457663,
				-1.0623407575849342e-07,
				0.0010911902645602822,
				0.9999970197677612
			],
			"scale":[
				0.9999999403953552,
				1,
				1
			],
			"translation":[
				-0.024099647998809814,
				11.042695999145508,
				-0.04800797253847122
			]
		},
		{
			"name":"mixamorig:RightHandRing4",
			"rotation":[
				1.717376505914835e-16,
				-2.9103830456733704e-11,
				-5.551121740570683e-17,
				1
			],
			"scale":[
				1,
				1,
				0.9999999403953552
			],
			"translation":[
				-7.152557373046875e-07,
				4.015299320220947,
				1.4203600585460663e-05
			]
		},
		{
			"children":[
				41
			],
			"name":"mixamorig:RightHandRing3",
			"rotation":[
				1.989735450241923e-16,
				-2.9103830456733704e-11,
				5.538340278094412e-16,
				1
			],
			"scale":[
				1,
				1,
				0.9999999403953552
			],
			"translation":[
				-7.152559646783629e-07,
				2.678400754928589,
				1.4203600585460663e-05
			]
		},
		{
			"children":[
				42
			],
			"name":"mixamorig:RightHandRing2",
			"rotation":[
				-6.817090225652578e-10,
				-2.9105624160807864e-11,
				-1.9681262841686475e-08,
				1
			],
			"scale":[
				1,
				1,
				0.9999999403953552
			],
			"translation":[
				7.724725037405733e-08,
				2.984797239303589,
				1.4093569006945472e-05
			]
		},
		{
			"children":[
				43
			],
			"name":"mixamorig:RightHandRing1",
			"rotation":[
				-0.0021735052578151226,
				-1.0621997859061594e-07,
				0.0010912100551649928,
				0.9999970197677612
			],
			"scale":[
				0.9999999403953552,
				1,
				1
			],
			"translation":[
				-2.8476998805999756,
				10.709089279174805,
				0.06999427080154419
			]
		},
		{
			"name":"mixamorig:RightHandPinky4",
			"rotation":[
				-3.4867947161089743e-16,
				-2.9103830456733704e-11,
				-8.326670567106306e-16,
				1
			],
			"scale":[
				1,
				1,
				0.9999999403953552
			],
			"translation":[
				-6.705522537231445e-07,
				3.731203556060791,
				1.4751218259334564e-05
			]
		},
		{
			"children":[
				45
			],
			"name":"mixamorig:RightHandPinky3",
			"rotation":[
				-3.449402181954637e-16,
				-2.9103830456733704e-11,
				-4.95930336727457e-15,
				1
			],
			"scale":[
				1,
				1,
				0.9999999403953552
			],
			"translation":[
				-6.705515147586993e-07,
				2.3383889198303223,
				1.4751218259334564e-05
			]
		},
		{
			"children":[
				46
			],
			"name":"mixamorig:RightHandPinky2",
			"rotation":[
				-5.012031345508206e-10,
				-2.9100118148495113e-11,
				4.166957978668506e-08,
				1
			],
			"scale":[
				1,
				1,
				0.9999999403953552
			],
			"translation":[
				-5.741458153352141e-07,
				2.5484023094177246,
				1.46720822158386e-05
			]
		},
		{
			"children":[
				47
			],
			"name":"mixamorig:RightHandPinky1",
			"rotation":[
				-0.0021735054906457663,
				-1.0635344693810111e-07,
				0.00109114870429039,
				0.9999970197677612
			],
			"scale":[
				0.9999999403953552,
				1,
				1
			],
			"translation":[
				-5.545401096343994,
				9.382296562194824,
				0.026996366679668427
			]
		},
		{
			"children":[
				32,
				36,
				40,
				44,
				48
			],
			"name":"mixamorig:RightHand",
			"rotation":[
				0.0021730405278503895,
				0.0004265589523129165,
				-0.0010921347420662642,
				0.9999969601631165
			],
			"translation":[
				-3.7842346500838175e-07,
				27.518230438232422,
				1.5044219253468327e-05
			]
		},
		{
			"children":[
				49
			],
			"name":"mixamorig:RightForeArm",
			"rotation":[
				-1.4901164746561335e-08,
				-4.3628141099816276e-08,
				-8.163318909737427e-08,
				1
			],
			"translation":[
				-1.2089185474906117e-07,
				27.263620376586914,
				1.3508136362361256e-05
			]
		},
		{
			"children":[
				50
			],
			"name":"mixamorig:RightArm",
			"rotation":[
				-0.08704587817192078,
				0.013273559510707855,
				-0.1501593291759491,
				0.984732985496521
			],
			"scale":[
				1,
				1.0000001192092896,
				1.0000001192092896
			],
			"translation":[
				-2.384185791015625e-07,
				6.437393665313721,
				-8.862584763846826e-06
			]
		},
		{
			"children":[
				51
			],
			"name":"mixamorig:RightShoulder",
			"rotation":[
				0.46744656562805176,
				-0.5305600762367249,
				0.6043323278427124,
				0.36712712049484253
			],
			"scale":[
				0.9999997019767761,
				0.9999995827674866,
				0.9999998807907104
			],
			"translation":[
				-6.172299385070801,
				17.857192993164062,
				-2.6243996620178223
			]
		},
		{
			"children":[
				4,
				28,
				52
			],
			"name":"mixamorig:Spine2",
			"rotation":[
				0.02143535204231739,
				-4.0638047101247933e-22,
				8.250853979887607e-24,
				0.9997702836990356
			],
			"scale":[
				1,
				1,
				0.9999999403953552
			],
			"translation":[
				-9.094947017729282e-13,
				8.623316764831543,
				-3.2782554626464844e-07
			]
		},
		{
			"children":[
				53
			],
			"name":"mixamorig:Spine1",
			"rotation":[
				-0.03224284201860428,
				-1.83279295060991e-15,
				5.681386418721242e-14,
				0.9994800686836243
			],
			"scale":[
				1,
				0.9999999403953552,
				1
			],
			"translation":[
				3.1984086061066785e-14,
				7.456503868103027,
				1.7881393432617188e-07
			]
		},
		{
			"children":[
				54
			],
			"name":"mixamorig:Spine",
			"rotation":[
				0.01081122551113367,
				-9.434572234567895e-09,
				-8.726136115910776e-07,
				0.9999415874481201
			],
			"translation":[
				4.464012492988445e-12,
				7.244514465332031,
				0.633400022983551
			]
		},
		{
			"name":"mixamorig:LeftToe_End",
			"rotation":[
				2.9685905289511538e-08,
				-1.9111100234888573e-13,
				7.083222897108499e-14,
				1
			],
			"scale":[
				1,
				1,
				1.0000001192092896
			],
			"translation":[
				3.7701835253756144e-07,
				10.34279727935791,
				-8.303686627186835e-10
			]
		},
		{
			"children":[
				56
			],
			"name":"mixamorig:LeftToeBase",
			"rotation":[
				0.28890565037727356,
				1.1245984978813794e-06,
				-6.250161845855473e-07,
				0.9573575854301453
			],
			"scale":[
				1,
				1,
				0.9999998807907104
			],
			"translation":[
				-1.0643786936270772e-06,
				13.199997901916504,
				-6.69557266519405e-07
			]
		},
		{
			"children":[
				57
			],
			"name":"mixamorig:LeftFoot",
			"rotation":[
				0.5074158310890198,
				-1.869153493316844e-06,
				6.751270120730624e-07,
				0.8617013096809387
			],
			"translation":[
				-8.335829306815867e-07,
				46.81801223754883,
				2.3519169189967215e-07
			]
		},
		{
			"children":[
				58
			],
			"name":"mixamorig:LeftLeg",
			"rotation":[
				-0.051636144518852234,
				4.1853309085126966e-07,
				-4.9292729897842946e-08,
				0.998665988445282
			],
			"scale":[
				1,
				0.9999999403953552,
				1
			],
			"translation":[
				-1.0972198651870713e-06,
				46.74801254272461,
				-1.441558197257109e-07
			]
		},
		{
			"children":[
				59
			],
			"name":"mixamorig:LeftUpLeg",
			"rotation":[
				-3.0290289032564033e-07,
				0.011289422400295734,
				0.9999362826347351,
				9.146528441306145e-07
			],
			"scale":[
				1,
				0.9999997615814209,
				0.9999999403953552
			],
			"translation":[
				9.965801239013672,
				-12.31578254699707,
				-0.27889999747276306
			]
		},
		{
			"name":"mixamorig:RightToe_End",
			"rotation":[
				-1.4901161193847656e-08,
				-2.44243644406672e-16,
				4.0341180781089045e-15,
				1
			],
			"translation":[
				9.551475841362844e-07,
				10.342998504638672,
				-1.628450263524428e-09
			]
		},
		{
			"children":[
				61
			],
			"name":"mixamorig:RightToeBase",
			"rotation":[
				0.28890904784202576,
				-5.411916959019436e-08,
				1.0441009834494253e-08,
				0.9573565721511841
			],
			"scale":[
				1,
				1,
				1.0000001192092896
			],
			"translation":[
				5.446210025183973e-07,
				13.200002670288086,
				3.954529574912158e-07
			]
		},
		{
			"children":[
				62
			],
			"name":"mixamorig:RightFoot",
			"rotation":[
				0.5074135661125183,
				3.346129346937232e-07,
				3.299596755823586e-07,
				0.8617026805877686
			],
			"translation":[
				1.312716676693526e-06,
				46.8180046081543,
				2.2785218334320234e-07
			]
		},
		{
			"children":[
				63
			],
			"name":"mixamorig:RightLeg",
			"rotation":[
				-0.051636144518852234,
				-3.041332661268825e-07,
				-8.764272934058681e-07,
				0.998665988445282
			],
			"scale":[
				1,
				0.9999999403953552,
				1
			],
			"translation":[
				6.363111424434464e-07,
				46.747703552246094,
				7.023072612355463e-08
			]
		},
		{
			"children":[
				64
			],
			"name":"mixamorig:RightUpLeg",
			"rotation":[
				-1.925741344166454e-07,
				0.011289423331618309,
				0.9999362826347351,
				4.772668944497127e-07
			],
			"scale":[
				1,
				0.9999997615814209,
				0.9999999403953552
			],
			"translation":[
				-9.965799331665039,
				-12.316083908081055,
				-0.27889999747276306
			]
		},
		{
			"name":"mixamorig:LeftRibbon1",
			"rotation":[
				0.050121501088142395,
				-0.11390511691570282,
				-0.9081903696060181,
				0.39962950348854065
			],
			"scale":[
				1,
				1,
				0.9999999403953552
			],
			"translation":[
				16.064199447631836,
				3.4496097564697266,
				8.42029857635498
			]
		},
		{
			"name":"mixamorig:LeftRibbon2",
			"rotation":[
				0.02369406819343567,
				-0.19993814826011658,
				-0.9664434194564819,
				0.1595321148633957
			],
			"scale":[
				1.0000001192092896,
				1,
				1.000000238418579
			],
			"translation":[
				10.696998596191406,
				-0.09678319841623306,
				12.125900268554688
			]
		},
		{
			"children":[
				55,
				60,
				65,
				66,
				67
			],
			"name":"mixamorig:Hips",
			"rotation":[
				-0.7071067690849304,
				6.170670303617953e-07,
				6.170670303617953e-07,
				0.7071067690849304
			],
			"translation":[
				0,
				-9.094947017729282e-13,
				-113.03208923339844
			]
		},
		{
			"children":[
				68
			],
			"name":"Armature",
			"rotation":[
				0.7071068286895752,
				0,
				0,
				0.7071068286895752
			],
			"scale":[
				0.009999999776482582,
				0.009999999776482582,
				0.009999999776482582
			]
		}
	],
	"animations":[
		{
			"channels":[
				{
					"sampler":0,
					"target":{
						"node":68,
						"path":"translation"
					}
				},
				{
					"sampler":1,
					"target":{
						"node":68,
						"path":"rotation"
					}
				},
				{
					"sampler":2,
					"target":{
						"node":68,
						"path":"scale"
					}
				},
				{
					"sampler":3,
					"target":{
						"node":55,
						"path":"translation"
					}
				},
				{
					"sampler":4,
					"target":{
						"node":55,
						"path":"rotation"
					}
				},
				{
					"sampler":5,
					"target":{
						"node":55,
						"path":"scale"
					}
				},
				{
					"sampler":6,
					"target":{
						"node":54,
						"path":"translation"
					}
				},
				{
					"sampler":7,
					"target":{
						"node":54,
						"path":"rotation"
					}
				},
				{
					"sampler":8,
					"target":{
						"node":54,
						"path":"scale"
					}
				},
				{
					"sampler":9,
					"target":{
						"node":53,
						"path":"translation"
					}
				},
				{
					"sampler":10,
					"target":{
						"node":53,
						"path":"rotation"
					}
				},
				{
					"sampler":11,
					"target":{
						"node":53,
						"path":"scale"
					}
				},
				{
					"sampler":12,
					"target":{
						"node":4,
						"path":"translation"
					}
				},
				{
					"sampler":13,
					"target":{
						"node":4,
						"path":"rotation"
					}
				},
				{
					"sampler":14,
					"target":{
						"node":4,
						"path":"scale"
					}
				},
				{
					"sampler":15,
					"target":{
						"node":3,
						"path":"translation"
					}
				},
				{
					"sampler":16,
					"target":{
						"node":3,
						"path":"rotation"
					}
				},
				{
					"sampler":17,
					"target":{
						"node":3,
						"path":"scale"
					}
				},
				{
					"sampler":18,
					"target":{
						"node":0,
						"path":"translation"
					}
				},
				{
					"sampler":19,
					"target":{
						"node":0,
						"path":"rotation"
					}
				},
				{
					"sampler":20,
					"target":{
						"node":0,
						"path":"scale"
					}
				},
				{
					"sampler":21,
					"target":{
						"node":1,
						"path":"translation"
					}
				},
				{
					"sampler":22,
					"target":{
						"node":1,
						"path":"rotation"
					}
				},
				{
					"sampler":23,
					"target":{
						"node":1,
						"path":"scale"
					}
				},
				{
					"sampler":24,
					"target":{
						"node":2,
						"path":"translation"
					}
				},
				{
					"sampler":25,
					"target":{
						"node":2,
						"path":"rotation"
					}
				},
				{
					"sampler":26,
					"target":{
						"node":2,
						"path":"scale"
					}
				},
				{
					"sampler":27,
					"target":{
						"node":28,
						"path":"translation"
					}
				},
				{
					"sampler":28,
					"target":{
						"node":28,
						"path":"rotation"
					}
				},
				{
					"sampler":29,
					"target":{
						"node":28,
						"path":"scale"
					}
				},
				{
					"sampler":30,
					"target":{
						"node":27,
						"path":"translation"
					}
				},
				{
					"sampler":31,
					"target":{
						"node":27,
						"path":"rotation"
					}
				},
				{
					"sampler":32,
					"target":{
						"node":27,
						"path":"scale"
					}
				},
				{
					"sampler":33,
					"target":{
						"node":26,
						"path":"translation"
					}
				},
				{
					"sampler":34,
					"target":{
						"node":26,
						"path":"rotation"
					}
				},
				{
					"sampler":35,
					"target":{
						"node":26,
						"path":"scale"
					}
				},
				{
					"sampler":36,
					"target":{
						"node":25,
						"path":"translation"
					}
				},
				{
					"sampler":37,
					"target":{
						"node":25,
						"path":"rotation"
					}
				},
				{
					"sampler":38,
					"target":{
						"node":25,
						"path":"scale"
					}
				},
				{
					"sampler":39,
					"target":{
						"node":8,
						"path":"translation"
					}
				},
				{
					"sampler":40,
					"target":{
						"node":8,
						"path":"rotation"
					}
				},
				{
					"sampler":41,
					"target":{
						"node":8,
						"path":"scale"
					}
				},
				{
					"sampler":42,
					"target":{
						"node":7,
						"path":"translation"
					}
				},
				{
					"sampler":43,
					"target":{
						"node":7,
						"path":"rotation"
					}
				},
				{
					"sampler":44,
					"target":{
						"node":7,
						"path":"scale"
					}
				},
				{
					"sampler":45,
					"target":{
						"node":6,
						"path":"translation"
					}
				},
				{
					"sampler":46,
					"target":{
						"node":6,
						"path":"rotation"
					}
				},
				{
					"sampler":47,
					"target":{
						"node":6,
						"path":"scale"
					}
				},
				{
					"sampler":48,
					"target":{
						"node":5,
						"path":"translation"
					}
				},
				{
					"sampler":49,
					"target":{
						"node":5,
						"path":"rotation"
					}
				},
				{
					"sampler":50,
					"target":{
						"node":5,
						"path":"scale"
					}
				},
				{
					"sampler":51,
					"target":{
						"node":12,
						"path":"translation"
					}
				},
				{
					"sampler":52,
					"target":{
						"node":12,
						"path":"rotation"
					}
				},
				{
					"sampler":53,
					"target":{
						"node":12,
						"path":"scale"
					}
				},
				{
					"sampler":54,
					"target":{
						"node":11,
						"path":"translation"
					}
				},
				{
					"sampler":55,
					"target":{
						"node":11,
						"path":"rotation"
					}
				},
				{
					"sampler":56,
					"target":{
						"node":11,
						"path":"scale"
					}
				},
				{
					"sampler":57,
					"target":{
						"node":10,
						"path":"translation"
					}
				},
				{
					"sampler":58,
					"target":{
						"node":10,
						"path":"rotation"
					}
				},
				{
					"sampler":59,
					"target":{
						"node":10,
						"path":"scale"
					}
				},
				{
					"sampler":60,
					"target":{
						"node":9,
						"path":"translation"
					}
				},
				{
					"sampler":61,
					"target":{
						"node":9,
						"path":"rotation"
					}
				},
				{
					"sampler":62,
					"target":{
						"node":9,
						"path":"scale"
					}
				},
				{
					"sampler":63,
					"target":{
						"node":16,
						"path":"translation"
					}
				},
				{
					"sampler":64,
					"target":{
						"node":16,
						"path":"rotation"
					}
				},
				{
					"sampler":65,
					"target":{
						"node":16,
						"path":"scale"
					}
				},
				{
					"sampler":66,
					"target":{
						"node":15,
						"path":"translation"
					}
				},
				{
					"sampler":67,
					"target":{
						"node":15,
						"path":"rotation"
					}
				},
				{
					"sampler":68,
					"target":{
						"node":15,
						"path":"scale"
					}
				},
				{
					"sampler":69,
					"target":{
						"node":14,
						"path":"translation"
					}
				},
				{
					"sampler":70,
					"target":{
						"node":14,
						"path":"rotation"
					}
				},
				{
					"sampler":71,
					"target":{
						"node":14,
						"path":"scale"
					}
				},
				{
					"sampler":72,
					"target":{
						"node":13,
						"path":"translation"
					}
				},
				{
					"sampler":73,
					"target":{
						"node":13,
						"path":"rotation"
					}
				},
				{
					"sampler":74,
					"target":{
						"node":13,
						"path":"scale"
					}
				},
				{
					"sampler":75,
					"target":{
						"node":20,
						"path":"translation"
					}
				},
				{
					"sampler":76,
					"target":{
						"node":20,
						"path":"rotation"
					}
				},
				{
					"sampler":77,
					"target":{
						"node":20,
						"path":"scale"
					}
				},
				{
					"sampler":78,
					"target":{
						"node":19,
						"path":"translation"
					}
				},
				{
					"sampler":79,
					"target":{
						"node":19,
						"path":"rotation"
					}
				},
				{
					"sampler":80,
					"target":{
						"node":19,
						"path":"scale"
					}
				},
				{
					"sampler":81,
					"target":{
						"node":18,
						"path":"translation"
					}
				},
				{
					"sampler":82,
					"target":{
						"node":18,
						"path":"rotation"
					}
				},
				{
					"sampler":83,
					"target":{
						"node":18,
						"path":"scale"
					}
				},
				{
					"sampler":84,
					"target":{
						"node":17,
						"path":"translation"
					}
				},
				{
					"sampler":85,
					"target":{
						"node":17,
						"path":"rotation"
					}
				},
				{
					"sampler":86,
					"target":{
						"node":17,
						"path":"scale"
					}
				},
				{
					"sampler":87,
					"target":{
						"node":24,
						"path":"translation"
					}
				},
				{
					"sampler":88,
					"target":{
						"node":24,
						"path":"rotation"
					}
				},
				{
					"sampler":89,
					"target":{
						"node":24,
						"path":"scale"
					}
				},
				{
					"sampler":90,
					"target":{
						"node":23,
						"path":"translation"
					}
				},
				{
					"sampler":91,
					"target":{
						"node":23,
						"path":"rotation"
					}
				},
				{
					"sampler":92,
					"target":{
						"node":23,
						"path":"scale"
					}
				},
				{
					"sampler":93,
					"target":{
						"node":22,
						"path":"translation"
					}
				},
				{
					"sampler":94,
					"target":{
						"node":22,
						"path":"rotation"
					}
				},
				{
					"sampler":95,
					"target":{
						"node":22,
						"path":"scale"
					}
				},
				{
					"sampler":96,
					"target":{
						"node":21,
						"path":"translation"
					}
				},
				{
					"sampler":97,
					"target":{
						"node":21,
						"path":"rotation"
					}
				},
				{
					"sampler":98,
					"target":{
						"node":21,
						"path":"scale"
					}
				},
				{
					"sampler":99,
					"target":{
						"node":52,
						"path":"translation"
					}
				},
				{
					"sampler":100,
					"target":{
						"node":52,
						"path":"rotation"
					}
				},
				{
					"sampler":101,
					"target":{
						"node":52,
						"path":"scale"
					}
				},
				{
					"sampler":102,
					"target":{
						"node":51,
						"path":"translation"
					}
				},
				{
					"sampler":103,
					"target":{
						"node":51,
						"path":"rotation"
					}
				},
				{
					"sampler":104,
					"target":{
						"node":51,
						"path":"scale"
					}
				},
				{
					"sampler":105,
					"target":{
						"node":50,
						"path":"translation"
					}
				},
				{
					"sampler":106,
					"target":{
						"node":50,
						"path":"rotation"
					}
				},
				{
					"sampler":107,
					"target":{
						"node":50,
						"path":"scale"
					}
				},
				{
					"sampler":108,
					"target":{
						"node":49,
						"path":"translation"
					}
				},
				{
					"sampler":109,
					"target":{
						"node":49,
						"path":"rotation"
					}
				},
				{
					"sampler":110,
					"target":{
						"node":49,
						"path":"scale"
					}
				},
				{
					"sampler":111,
					"target":{
						"node":32,
						"path":"translation"
					}
				},
				{
					"sampler":112,
					"target":{
						"node":32,
						"path":"rotation"
					}
				},
				{
					"sampler":113,
					"target":{
						"node":32,
						"path":"scale"
					}
				},
				{
					"sampler":114,
					"target":{
						"node":31,
						"path":"translation"
					}
				},
				{
					"sampler":115,
					"target":{
						"node":31,
						"path":"rotation"
					}
				},
				{
					"sampler":116,
					"target":{
						"node":31,
						"path":"scale"
					}
				},
				{
					"sampler":117,
					"target":{
						"node":30,
						"path":"translation"
					}
				},
				{
					"sampler":118,
					"target":{
						"node":30,
						"path":"rotation"
					}
				},
				{
					"sampler":119,
					"target":{
						"node":30,
						"path":"scale"
					}
				},
				{
					"sampler":120,
					"target":{
						"node":29,
						"path":"translation"
					}
				},
				{
					"sampler":121,
					"target":{
						"node":29,
						"path":"rotation"
					}
				},
				{
					"sampler":122,
					"target":{
						"node":29,
						"path":"scale"
					}
				},
				{
					"sampler":123,
					"target":{
						"node":36,
						"path":"translation"
					}
				},
				{
					"sampler":124,
					"target":{
						"node":36,
						"path":"rotation"
					}
				},
				{
					"sampler":125,
					"target":{
						"node":36,
						"path":"scale"
					}
				},
				{
					"sampler":126,
					"target":{
						"node":35,
						"path":"translation"
					}
				},
				{
					"sampler":127,
					"target":{
						"node":35,
						"path":"rotation"
					}
				},
				{
					"sampler":128,
					"target":{
						"node":35,
						"path":"scale"
					}
				},
				{
					"sampler":129,
					"target":{
						"node":34,
						"path":"translation"
					}
				},
				{
					"sampler":130,
					"target":{
						"node":34,
						"path":"rotation"
					}
				},
				{
					"sampler":131,
					"target":{
						"node":34,
						"path":"scale"
					}
				},
				{
					"sampler":132,
					"target":{
						"node":33,
						"path":"translation"
					}
				},
				{
					"sampler":133,
					"target":{
						"node":33,
						"path":"rotation"
					}
				},
				{
					"sampler":134,
					"target":{
						"node":33,
						"path":"scale"
					}
				},
				{
					"sampler":135,
					"target":{
						"node":40,
						"path":"translation"
					}
				},
				{
					"sampler":136,
					"target":{
						"node":40,
						"path":"rotation"
					}
				},
				{
					"sampler":137,
					"target":{
						"node":40,
						"path":"scale"
					}
				},
				{
					"sampler":138,
					"target":{
						"node":39,
						"path":"translation"
					}
				},
				{
					"sampler":139,
					"target":{
						"node":39,
						"path":"rotation"
					}
				},
				{
					"sampler":140,
					"target":{
						"node":39,
						"path":"scale"
					}
				},
				{
					"sampler":141,
					"target":{
						"node":38,
						"path":"translation"
					}
				},
				{
					"sampler":142,
					"target":{
						"node":38,
						"path":"rotation"
					}
				},
				{
					"sampler":143,
					"target":{
						"node":38,
						"path":"scale"
					}
				},
				{
					"sampler":144,
					"target":{
						"node":37,
						"path":"translation"
					}
				},
				{
					"sampler":145,
					"target":{
						"node":37,
						"path":"rotation"
					}
				},
				{
					"sampler":146,
					"target":{
						"node":37,
						"path":"scale"
					}
				},
				{
					"sampler":147,
					"target":{
						"node":44,
						"path":"translation"
					}
				},
				{
					"sampler":148,
					"target":{
						"node":44,
						"path":"rotation"
					}
				},
				{
					"sampler":149,
					"target":{
						"node":44,
						"path":"scale"
					}
				},
				{
					"sampler":150,
					"target":{
						"node":43,
						"path":"translation"
					}
				},
				{
					"sampler":151,
					"target":{
						"node":43,
						"path":"rotation"
					}
				},
				{
					"sampler":152,
					"target":{
						"node":43,
						"path":"scale"
					}
				},
				{
					"sampler":153,
					"target":{
						"node":42,
						"path":"translation"
					}
				},
				{
					"sampler":154,
					"target":{
						"node":42,
						"path":"rotation"
					}
				},
				{
					"sampler":155,
					"target":{
						"node":42,
						"path":"scale"
					}
				},
				{
					"sampler":156,
					"target":{
						"node":41,
						"path":"translation"
					}
				},
				{
					"sampler":157,
					"target":{
						"node":41,
						"path":"rotation"
					}
				},
				{
					"sampler":158,
					"target":{
						"node":41,
						"path":"scale"
					}
				},
				{
					"sampler":159,
					"target":{
						"node":48,
						"path":"translation"
					}
				},
				{
					"sampler":160,
					"target":{
						"node":48,
						"path":"rotation"
					}
				},
				{
					"sampler":161,
					"target":{
						"node":48,
						"path":"scale"
					}
				},
				{
					"sampler":162,
					"target":{
						"node":47,
						"path":"translation"
					}
				},
				{
					"sampler":163,
					"target":{
						"node":47,
						"path":"rotation"
					}
				},
				{
					"sampler":164,
					"target":{
						"node":47,
						"path":"scale"
					}
				},
				{
					"sampler":165,
					"target":{
						"node":46,
						"path":"translation"
					}
				},
				{
					"sampler":166,
					"target":{
						"node":46,
						"path":"rotation"
					}
				},
				{
					"sampler":167,
					"target":{
						"node":46,
						"path":"scale"
					}
				},
				{
					"sampler":168,
					"target":{
						"node":45,
						"path":"translation"
					}
				},
				{
					"sampler":169,
					"target":{
						"node":45,
						"path":"rotation"
					}
				},
				{
					"sampler":170,
					"target":{
						"node":45,
						"path":"scale"
					}
				},
				{
					"sampler":171,
					"target":{
						"node":60,
						"path":"translation"
					}
				},
				{
					"sampler":172,
					"target":{
						"node":60,
						"path":"rotation"
					}
				},
				{
					"sampler":173,
					"target":{
						"node":60,
						"path":"scale"
					}
				},
				{
					"sampler":174,
					"target":{
						"node":59,
						"path":"translation"
					}
				},
				{
					"sampler":175,
					"target":{
						"node":59,
						"path":"rotation"
					}
				},
				{
					"sampler":176,
					"target":{
						"node":59,
						"path":"scale"
					}
				},
				{
					"sampler":177,
					"target":{
						"node":58,
						"path":"translation"
					}
				},
				{
					"sampler":178,
					"target":{
						"node":58,
						"path":"rotation"
					}
				},
				{
					"sampler":179,
					"target":{
						"node":58,
						"path":"scale"
					}
				},
				{
					"sampler":180,
					"target":{
						"node":57,
						"path":"translation"
					}
				},
				{
					"sampler":181,
					"target":{
						"node":57,
						"path":"rotation"
					}
				},
				{
					"sampler":182,
					"target":{
						"node":57,
						"path":"scale"
					}
				},
				{
					"sampler":183,
					"target":{
						"node":56,
						"path":"translation"
					}
				},
				{
					"sampler":184,
					"target":{
						"node":56,
						"path":"rotation"
					}
				},
				{
					"sampler":185,
					"target":{
						"node":56,
						"path":"scale"
					}
				},
				{
					"sampler":186,
					"target":{
						"node":65,
						"path":"translation"
					}
				},
				{
					"sampler":187,
					"target":{
						"node":65,
						"path":"rotation"
					}
				},
				{
					"sampler":188,
					"target":{
						"node":65,
						"path":"scale"
					}
				},
				{
					"sampler":189,
					"target":{
						"node":64,
						"path":"translation"
					}
				},
				{
					"sampler":190,
					"target":{
						"node":64,
						"path":"rotation"
					}
				},
				{
					"sampler":191,
					"target":{
						"node":64,
						"path":"scale"
					}
				},
				{
					"sampler":192,
					"target":{
						"node":63,
						"path":"translation"
					}
				},
				{
					"sampler":193,
					"target":{
						"node":63,
						"path":"rotation"
					}
				},
				{
					"sampler":194,
					"target":{
						"node":63,
						"path":"scale"
					}
				},
				{
					"sampler":195,
					"target":{
						"node":62,
						"path":"translation"
					}
				},
				{
					"sampler":196,
					"target":{
						"node":62,
						"path":"rotation"
					}
				},
				{
					"sampler":197,
					"target":{
						"node":62,
						"path":"scale"
					}
				},
				{
					"sampler":198,
					"target":{
						"node":61,
						"path":"translation"
					}
				},
				{
					"sampler":199,
					"target":{
						"node":61,
						"path":"rotation"
					}
				},
				{
					"sampler":200,
					"target":{
						"node":61,
						"path":"scale"
					}
				},
				{
					"sampler":201,
					"target":{
						"node":66,
						"path":"translation"
					}
				},
				{
					"sampler":202,
					"target":{
						"node":66,
						"path":"rotation"
					}
				},
				{
					"sampler":203,
					"target":{
						"node":66,
						"path":"scale"
					}
				},
				{
					"sampler":204,
					"target":{
						"node":67,
						"path":"translation"
					}
				},
				{
					"sampler":205,
					"target":{
						"node":67,
						"path":"rotation"
					}
				},
				{
					"sampler":206,
					"target":{
						"node":67,
						"path":"scale"
					}
				}
			],
			"name":"Armature|mixamo.com|Layer0",
			"samplers":[
				{
					"input":0,
					"interpolation":"LINEAR",
					"output":1
				},
				{
					"input":0,
					"interpolation":"LINEAR",
					"output":2
				},
				{
					"input":3,
					"interpolation":"LINEAR",
					"output":4
				},
				{
					"input":3,
					"interpolation":"LINEAR",
					"output":5
				},
				{
					"input":0,
					"interpolation":"LINEAR",
					"output":6
				},
				{
					"input":3,
					"interpolation":"STEP",
					"output":7
				},
				{
					"input":3,
					"interpolation":"LINEAR",
					"output":8
				},
				{
					"input":0,
					"interpolation":"LINEAR",
					"output":9
				},
				{
					"input":3,
					"interpolation":"LINEAR",
					"output":10
				},
				{
					"input":3,
					"interpolation":"LINEAR",
					"output":11
				},
				{
					"input":0,
					"interpolation":"LINEAR",
					"output":12
				},
				{
					"input":3,
					"interpolation":"STEP",
					"output":13
				},
				{
					"input":3,
					"interpolation":"LINEAR",
					"output":14
				},
				{
					"input":0,
					"interpolation":"LINEAR",
					"output":15
				},
				{
					"input":3,
					"interpolation":"LINEAR",
					"output":16
				},
				{
					"input":3,
					"interpolation":"LINEAR",
					"output":17
				},
				{
					"input":0,
					"interpolation":"LINEAR",
					"output":18
				},
				{
					"input":3,
					"interpolation":"LINEAR",
					"output":19
				},
				{
					"input":3,
					"interpolation":"STEP",
					"output":20
				},
				{
					"input":3,
					"interpolation":"STEP",
					"output":21
				},
				{
					"input":3,
					"interpolation":"STEP",
					"output":22
				},
				{
					"input":3,
					"interpolation":"STEP",
					"output":23
				},
				{
					"input":3,
					"interpolation":"STEP",
					"output":21
				},
				{
					"input":3,
					"interpolation":"STEP",
					"output":22
				},
				{
					"input":3,
					"interpolation":"STEP",
					"output":24
				},
				{
					"input":3,
					"interpolation":"STEP",
					"output":21
				},
				{
					"input":3,
					"interpolation":"STEP",
					"output":22
				},
				{
					"input":3,
					"interpolation":"LINEAR",
					"output":25
				},
				{
					"input":0,
					"interpolation":"LINEAR",
					"output":26
				},
				{
					"input":3,
					"interpolation":"STEP",
					"output":27
				},
				{
					"input":3,
					"interpolation":"LINEAR",
					"output":28
				},
				{
					"input":0,
					"interpolation":"LINEAR",
					"output":29
				},
				{
					"input":3,
					"interpolation":"LINEAR",
					"output":30
				},
				{
					"input":3,
					"interpolation":"LINEAR",
					"output":31
				},
				{
					"input":0,
					"interpolation":"LINEAR",
					"output":32
				},
				{
					"input":3,
					"interpolation":"LINEAR",
					"output":33
				},
				{
					"input":3,
					"interpolation":"LINEAR",
					"output":34
				},
				{
					"input":0,
					"interpolation":"LINEAR",
					"output":35
				},
				{
					"input":3,
					"interpolation":"LINEAR",
					"output":36
				},
				{
					"input":3,
					"interpolation":"LINEAR",
					"output":37
				},
				{
					"input":0,
					"interpolation":"LINEAR",
					"output":38
				},
				{
					"input":3,
					"interpolation":"STEP",
					"output":39
				},
				{
					"input":3,
					"interpolation":"LINEAR",
					"output":40
				},
				{
					"input":0,
					"interpolation":"LINEAR",
					"output":41
				},
				{
					"input":3,
					"interpolation":"LINEAR",
					"output":42
				},
				{
					"input":3,
					"interpolation":"LINEAR",
					"output":43
				},
				{
					"input":0,
					"interpolation":"LINEAR",
					"output":44
				},
				{
					"input":3,
					"interpolation":"LINEAR",
					"output":45
				},
				{
					"input":3,
					"interpolation":"STEP",
					"output":46
				},
				{
					"input":3,
					"interpolation":"STEP",
					"output":47
				},
				{
					"input":3,
					"interpolation":"STEP",
					"output":22
				},
				{
					"input":3,
					"interpolation":"LINEAR",
					"output":48
				},
				{
					"input":0,
					"interpolation":"LINEAR",
					"output":49
				},
				{
					"input":3,
					"interpolation":"LINEAR",
					"output":50
				},
				{
					"input":3,
					"interpolation":"LINEAR",
					"output":51
				},
				{
					"input":0,
					"interpolation":"LINEAR",
					"output":52
				},
				{
					"input":3,
					"interpolation":"LINEAR",
					"output":53
				},
				{
					"input":3,
					"interpolation":"LINEAR",
					"output":54
				},
				{
					"input":0,
					"interpolation":"LINEAR",
					"output":55
				},
				{
					"input":3,
					"interpolation":"LINEAR",
					"output":56
				},
				{
					"input":3,
					"interpolation":"STEP",
					"output":57
				},
				{
					"input":3,
					"interpolation":"STEP",
					"output":58
				},
				{
					"input":3,
					"interpolation":"STEP",
					"output":59
				},
				{
					"input":3,
					"interpolation":"LINEAR",
					"output":60
				},
				{
					"input":0,
					"interpolation":"LINEAR",
					"output":61
				},
				{
					"input":3,
					"interpolation":"STEP",
					"output":62
				},
				{
					"input":3,
					"interpolation":"LINEAR",
					"output":63
				},
				{
					"input":0,
					"interpolation":"LINEAR",
					"output":64
				},
				{
					"input":3,
					"interpolation":"STEP",
					"output":65
				},
				{
					"input":3,
					"interpolation":"LINEAR",
					"output":66
				},
				{
					"input":0,
					"interpolation":"LINEAR",
					"output":67
				},
				{
					"input":3,
					"interpolation":"STEP",
					"output":68
				},
				{
					"input":3,
					"interpolation":"STEP",
					"output":69
				},
				{
					"input":3,
					"interpolation":"STEP",
					"output":70
				},
				{
					"input":3,
					"interpolation":"STEP",
					"output":71
				},
				{
					"input":3,
					"interpolation":"LINEAR",
					"output":72
				},
				{
					"input":0,
					"interpolation":"LINEAR",
					"output":73
				},
				{
					"input":3,
					"interpolation":"STEP",
					"output":74
				},
				{
					"input":3,
					"interpolation":"LINEAR",
					"output":75
				},
				{
					"input":0,
					"interpolation":"LINEAR",
					"output":76
				},
				{
					"input":3,
					"interpolation":"STEP",
					"output":77
				},
				{
					"input":3,
					"interpolation":"LINEAR",
					"output":78
				},
				{
					"input":0,
					"interpolation":"LINEAR",
					"output":79
				},
				{
					"input":3,
					"interpolation":"LINEAR",
					"output":80
				},
				{
					"input":3,
					"interpolation":"STEP",
					"output":81
				},
				{
					"input":3,
					"interpolation":"STEP",
					"output":82
				},
				{
					"input":3,
					"interpolation":"STEP",
					"output":83
				},
				{
					"input":3,
					"interpolation":"LINEAR",
					"output":84
				},
				{
					"input":0,
					"interpolation":"LINEAR",
					"output":85
				},
				{
					"input":3,
					"interpolation":"STEP",
					"output":86
				},
				{
					"input":3,
					"interpolation":"LINEAR",
					"output":87
				},
				{
					"input":0,
					"interpolation":"LINEAR",
					"output":88
				},
				{
					"input":3,
					"interpolation":"STEP",
					"output":65
				},
				{
					"input":3,
					"interpolation":"LINEAR",
					"output":89
				},
				{
					"input":0,
					"interpolation":"LINEAR",
					"output":90
				},
				{
					"input":3,
					"interpolation":"STEP",
					"output":91
				},
				{
					"input":3,
					"interpolation":"STEP",
					"output":92
				},
				{
					"input":3,
					"interpolation":"STEP",
					"output":93
				},
				{
					"input":3,
					"interpolation":"STEP",
					"output":94
				},
				{
					"input":3,
					"interpolation":"LINEAR",
					"output":95
				},
				{
					"input":0,
					"interpolation":"LINEAR",
					"output":96
				},
				{
					"input":3,
					"interpolation":"LINEAR",
					"output":97
				},
				{
					"input":3,
					"interpolation":"LINEAR",
					"output":98
				},
				{
					"input":0,
					"interpolation":"LINEAR",
					"output":99
				},
				{
					"input":3,
					"interpolation":"LINEAR",
					"output":100
				},
				{
					"input":3,
					"interpolation":"LINEAR",
					"output":101
				},
				{
					"input":0,
					"interpolation":"LINEAR",
					"output":102
				},
				{
					"input":3,
					"interpolation":"LINEAR",
					"output":83
				},
				{
					"input":3,
					"interpolation":"LINEAR",
					"output":103
				},
				{
					"input":0,
					"interpolation":"LINEAR",
					"output":104
				},
				{
					"input":3,
					"interpolation":"LINEAR",
					"output":105
				},
				{
					"input":3,
					"interpolation":"LINEAR",
					"output":106
				},
				{
					"input":0,
					"interpolation":"LINEAR",
					"output":107
				},
				{
					"input":3,
					"interpolation":"STEP",
					"output":108
				},
				{
					"input":3,
					"interpolation":"LINEAR",
					"output":109
				},
				{
					"input":0,
					"interpolation":"LINEAR",
					"output":110
				},
				{
					"input":3,
					"interpolation":"STEP",
					"output":111
				},
				{
					"input":3,
					"interpolation":"LINEAR",
					"output":112
				},
				{
					"input":0,
					"interpolation":"LINEAR",
					"output":113
				},
				{
					"input":3,
					"interpolation":"STEP",
					"output":114
				},
				{
					"input":3,
					"interpolation":"STEP",
					"output":115
				},
				{
					"input":3,
					"interpolation":"STEP",
					"output":116
				},
				{
					"input":3,
					"interpolation":"STEP",
					"output":117
				},
				{
					"input":3,
					"interpolation":"LINEAR",
					"output":118
				},
				{
					"input":0,
					"interpolation":"LINEAR",
					"output":119
				},
				{
					"input":3,
					"interpolation":"LINEAR",
					"output":120
				},
				{
					"input":3,
					"interpolation":"LINEAR",
					"output":121
				},
				{
					"input":0,
					"interpolation":"LINEAR",
					"output":122
				},
				{
					"input":3,
					"interpolation":"LINEAR",
					"output":123
				},
				{
					"input":3,
					"interpolation":"LINEAR",
					"output":124
				},
				{
					"input":0,
					"interpolation":"LINEAR",
					"output":125
				},
				{
					"input":3,
					"interpolation":"STEP",
					"output":22
				},
				{
					"input":3,
					"interpolation":"STEP",
					"output":126
				},
				{
					"input":3,
					"interpolation":"STEP",
					"output":127
				},
				{
					"input":3,
					"interpolation":"STEP",
					"output":128
				},
				{
					"input":3,
					"interpolation":"LINEAR",
					"output":129
				},
				{
					"input":0,
					"interpolation":"LINEAR",
					"output":130
				},
				{
					"input":3,
					"interpolation":"LINEAR",
					"output":131
				},
				{
					"input":3,
					"interpolation":"LINEAR",
					"output":132
				},
				{
					"input":0,
					"interpolation":"LINEAR",
					"output":133
				},
				{
					"input":3,
					"interpolation":"LINEAR",
					"output":134
				},
				{
					"input":3,
					"interpolation":"LINEAR",
					"output":135
				},
				{
					"input":0,
					"interpolation":"LINEAR",
					"output":136
				},
				{
					"input":3,
					"interpolation":"STEP",
					"output":137
				},
				{
					"input":3,
					"interpolation":"STEP",
					"output":138
				},
				{
					"input":3,
					"interpolation":"STEP",
					"output":139
				},
				{
					"input":3,
					"interpolation":"STEP",
					"output":140
				},
				{
					"input":3,
					"interpolation":"LINEAR",
					"output":141
				},
				{
					"input":0,
					"interpolation":"LINEAR",
					"output":142
				},
				{
					"input":3,
					"interpolation":"STEP",
					"output":143
				},
				{
					"input":3,
					"interpolation":"LINEAR",
					"output":144
				},
				{
					"input":0,
					"interpolation":"LINEAR",
					"output":145
				},
				{
					"input":3,
					"interpolation":"LINEAR",
					"output":146
				},
				{
					"input":3,
					"interpolation":"LINEAR",
					"output":147
				},
				{
					"input":0,
					"interpolation":"LINEAR",
					"output":148
				},
				{
					"input":3,
					"interpolation":"LINEAR",
					"output":149
				},
				{
					"input":3,
					"interpolation":"STEP",
					"output":150
				},
				{
					"input":3,
					"interpolation":"STEP",
					"output":151
				},
				{
					"input":3,
					"interpolation":"STEP",
					"output":152
				},
				{
					"input":3,
					"interpolation":"LINEAR",
					"output":153
				},
				{
					"input":0,
					"interpolation":"LINEAR",
					"output":154
				},
				{
					"input":3,
					"interpolation":"LINEAR",
					"output":155
				},
				{
					"input":3,
					"interpolation":"LINEAR",
					"output":156
				},
				{
					"input":0,
					"interpolation":"LINEAR",
					"output":157
				},
				{
					"input":3,
					"interpolation":"STEP",
					"output":158
				},
				{
					"input":3,
					"interpolation":"LINEAR",
					"output":159
				},
				{
					"input":0,
					"interpolation":"LINEAR",
					"output":160
				},
				{
					"input":3,
					"interpolation":"STEP",
					"output":161
				},
				{
					"input":3,
					"interpolation":"STEP",
					"output":162
				},
				{
					"input":3,
					"interpolation":"STEP",
					"output":163
				},
				{
					"input":3,
					"interpolation":"STEP",
					"output":65
				},
				{
					"input":3,
					"interpolation":"LINEAR",
					"output":164
				},
				{
					"input":0,
					"interpolation":"LINEAR",
					"output":165
				},
				{
					"input":3,
					"interpolation":"LINEAR",
					"output":166
				},
				{
					"input":3,
					"interpolation":"LINEAR",
					"output":167
				},
				{
					"input":0,
					"interpolation":"LINEAR",
					"output":168
				},
				{
					"input":3,
					"interpolation":"LINEAR",
					"output":169
				},
				{
					"input":3,
					"interpolation":"LINEAR",
					"output":170
				},
				{
					"input":0,
					"interpolation":"LINEAR",
					"output":171
				},
				{
					"input":3,
					"interpolation":"STEP",
					"output":172
				},
				{
					"input":3,
					"interpolation":"LINEAR",
					"output":173
				},
				{
					"input":0,
					"interpolation":"LINEAR",
					"output":174
				},
				{
					"input":3,
					"interpolation":"STEP",
					"output":175
				},
				{
					"input":3,
					"interpolation":"STEP",
					"output":176
				},
				{
					"input":3,
					"interpolation":"STEP",
					"output":177
				},
				{
					"input":3,
					"interpolation":"STEP",
					"output":178
				},
				{
					"input":3,
					"interpolation":"LINEAR",
					"output":179
				},
				{
					"input":0,
					"interpolation":"LINEAR",
					"output":180
				},
				{
					"input":3,
					"interpolation":"STEP",
					"output":181
				},
				{
					"input":3,
					"interpolation":"LINEAR",
					"output":182
				},
				{
					"input":0,
					"interpolation":"LINEAR",
					"output":183
				},
				{
					"input":3,
					"interpolation":"LINEAR",
					"output":184
				},
				{
					"input":3,
					"interpolation":"LINEAR",
					"output":185
				},
				{
					"input":0,
					"interpolation":"LINEAR",
					"output":186
				},
				{
					"input":3,
					"interpolation":"LINEAR",
					"output":187
				},
				{
					"input":3,
					"interpolation":"LINEAR",
					"output":188
				},
				{
					"input":0,
					"interpolation":"LINEAR",
					"output":189
				},
				{
					"input":3,
					"interpolation":"LINEAR",
					"output":190
				},
				{
					"input":3,
					"interpolation":"STEP",
					"output":191
				},
				{
					"input":3,
					"interpolation":"STEP",
					"output":192
				},
				{
					"input":3,
					"interpolation":"STEP",
					"output":193
				},
				{
					"input":3,
					"interpolation":"STEP",
					"output":194
				},
				{
					"input":3,
					"interpolation":"STEP",
					"output":195
				},
				{
					"input":3,
					"interpolation":"STEP",
					"output":196
				},
				{
					"input":3,
					"interpolation":"STEP",
					"output":197
				},
				{
					"input":3,
					"interpolation":"STEP",
					"output":198
				},
				{
					"input":3,
					"interpolation":"STEP",
					"output":199
				}
			]
		}
	],
	"skins":[
		{
			"inverseBindMatrices":200,
			"joints":[
				68,
				55,
				54,
				53,
				4,
				3,
				0,
				1,
				2,
				28,
				27,
				26,
				25,
				8,
				7,
				6,
				5,
				12,
				11,
				10,
				9,
				16,
				15,
				14,
				13,
				20,
				19,
				18,
				17,
				24,
				23,
				22,
				21,
				52,
				51,
				50,
				49,
				32,
				31,
				30,
				29,
				36,
				35,
				34,
				33,
				40,
				39,
				38,
				37,
				44,
				43,
				42,
				41,
				48,
				47,
				46,
				45,
				60,
				59,
				58,
				57,
				56,
				65,
				64,
				63,
				62,
				61,
				66,
				67
			],
			"name":"Armature"
		}
	],
	"accessors":[
		{
			"bufferView":0,
			"componentType":5126,
			"count":147,
			"max":[
				4.9
			],
			"min":[
				0.03333333333333333
			],
			"type":"SCALAR"
		},
		{
			"bufferView":1,
			"componentType":5126,
			"count":147,
			"type":"VEC3"
		},
		{
			"bufferView":2,
			"componentType":5126,
			"count":147,
			"type":"VEC4"
		},
		{
			"bufferView":3,
			"componentType":5126,
			"count":2,
			"max":[
				4.9
			],
			"min":[
				0.03333333333333333
			],
			"type":"SCALAR"
		},
		{
			"bufferView":4,
			"componentType":5126,
			"count":2,
			"type":"VEC3"
		},
		{
			"bufferView":5,
			"componentType":5126,
			"count":2,
			"type":"VEC3"
		},
		{
			"bufferView":6,
			"componentType":5126,
			"count":147,
			"type":"VEC4"
		},
		{
			"bufferView":7,
			"componentType":5126,
			"count":2,
			"type":"VEC3"
		},
		{
			"bufferView":8,
			"componentType":5126,
			"count":2,
			"type":"VEC3"
		},
		{
			"bufferView":9,
			"componentType":5126,
			"count":147,
			"type":"VEC4"
		},
		{
			"bufferView":10,
			"componentType":5126,
			"count":2,
			"type":"VEC3"
		},
		{
			"bufferView":11,
			"componentType":5126,
			"count":2,
			"type":"VEC3"
		},
		{
			"bufferView":12,
			"componentType":5126,
			"count":147,
			"type":"VEC4"
		},
		{
			"bufferView":13,
			"componentType":5126,
			"count":2,
			"type":"VEC3"
		},
		{
			"bufferView":14,
			"componentType":5126,
			"count":2,
			"type":"VEC3"
		},
		{
			"bufferView":15,
			"componentType":5126,
			"count":147,
			"type":"VEC4"
		},
		{
			"bufferView":16,
			"componentType":5126,
			"count":2,
			"type":"VEC3"
		},
		{
			"bufferView":17,
			"componentType":5126,
			"count":2,
			"type":"VEC3"
		},
		{
			"bufferView":18,
			"componentType":5126,
			"count":147,
			"type":"VEC4"
		},
		{
			"bufferView":19,
			"componentType":5126,
			"count":2,
			"type":"VEC3"
		},
		{
			"bufferView":20,
			"componentType":5126,
			"count":2,
			"type":"VEC3"
		},
		{
			"bufferView":21,
			"componentType":5126,
			"count":2,
			"type":"VEC4"
		},
		{
			"bufferView":22,
			"componentType":5126,
			"count":2,
			"type":"VEC3"
		},
		{
			"bufferView":23,
			"componentType":5126,
			"count":2,
			"type":"VEC3"
		},
		{
			"bufferView":24,
			"componentType":5126,
			"count":2,
			"type":"VEC3"
		},
		{
			"bufferView":25,
			"componentType":5126,
			"count":2,
			"type":"VEC3"
		},
		{
			"bufferView":26,
			"componentType":5126,
			"count":147,
			"type":"VEC4"
		},
		{
			"bufferView":27,
			"componentType":5126,
			"count":2,
			"type":"VEC3"
		},
		{
			"bufferView":28,
			"componentType":5126,
			"count":2,
			"type":"VEC3"
		},
		{
			"bufferView":29,
			"componentType":5126,
			"count":147,
			"type":"VEC4"
		},
		{
			"bufferView":30,
			"componentType":5126,
			"count":2,
			"type":"VEC3"
		},
		{
			"bufferView":31,
			"componentType":5126,
			"count":2,
			"type":"VEC3"
		},
		{
			"bufferView":32,
			"componentType":5126,
			"count":147,
			"type":"VEC4"
		},
		{
			"bufferView":33,
			"componentType":5126,
			"count":2,
			"type":"VEC3"
		},
		{
			"bufferView":34,
			"componentType":5126,
			"count":2,
			"type":"VEC3"
		},
		{
			"bufferView":35,
			"componentType":5126,
			"count":147,
			"type":"VEC4"
		},
		{
			"bufferView":36,
			"componentType":5126,
			"count":2,
			"type":"VEC3"
		},
		{
			"bufferView":37,
			"componentType":5126,
			"count":2,
			"type":"VEC3"
		},
		{
			"bufferView":38,
			"componentType":5126,
			"count":147,
			"type":"VEC4"
		},
		{
			"bufferView":39,
			"componentType":5126,
			"count":2,
			"type":"VEC3"
		},
		{
			"bufferView":40,
			"componentType":5126,
			"count":2,
			"type":"VEC3"
		},
		{
			"bufferView":41,
			"componentType":5126,
			"count":147,
			"type":"VEC4"
		},
		{
			"bufferView":42,
			"componentType":5126,
			"count":2,
			"type":"VEC3"
		},
		{
			"bufferView":43,
			"componentType":5126,
			"count":2,
			"type":"VEC3"
		},
		{
			"bufferView":44,
			"componentType":5126,
			"count":147,
			"type":"VEC4"
		},
		{
			"bufferView":45,
			"componentType":5126,
			"count":2,
			"type":"VEC3"
		},
		{
			"bufferView":46,
			"componentType":5126,
			"count":2,
			"type":"VEC3"
		},
		{
			"bufferView":47,
			"componentType":5126,
			"count":2,
			"type":"VEC4"
		},
		{
			"bufferView":48,
			"componentType":5126,
			"count":2,
			"type":"VEC3"
		},
		{
			"bufferView":49,
			"componentType":5126,
			"count":147,
			"type":"VEC4"
		},
		{
			"bufferView":50,
			"componentType":5126,
			"count":2,
			"type":"VEC3"
		},
		{
			"bufferView":51,
			"componentType":5126,
			"count":2,
			"type":"VEC3"
		},
		{
			"bufferView":52,
			"componentType":5126,
			"count":147,
			"type":"VEC4"
		},
		{
			"bufferView":53,
			"componentType":5126,
			"count":2,
			"type":"VEC3"
		},
		{
			"bufferView":54,
			"componentType":5126,
			"count":2,
			"type":"VEC3"
		},
		{
			"bufferView":55,
			"componentType":5126,
			"count":147,
			"type":"VEC4"
		},
		{
			"bufferView":56,
			"componentType":5126,
			"count":2,
			"type":"VEC3"
		},
		{
			"bufferView":57,
			"componentType":5126,
			"count":2,
			"type":"VEC3"
		},
		{
			"bufferView":58,
			"componentType":5126,
			"count":2,
			"type":"VEC4"
		},
		{
			"bufferView":59,
			"componentType":5126,
			"count":2,
			"type":"VEC3"
		},
		{
			"bufferView":60,
			"componentType":5126,
			"count":2,
			"type":"VEC3"
		},
		{
			"bufferView":61,
			"componentType":5126,
			"count":147,
			"type":"VEC4"
		},
		{
			"bufferView":62,
			"componentType":5126,
			"count":2,
			"type":"VEC3"
		},
		{
			"bufferView":63,
			"componentType":5126,
			"count":2,
			"type":"VEC3"
		},
		{
			"bufferView":64,
			"componentType":5126,
			"count":147,
			"type":"VEC4"
		},
		{
			"bufferView":65,
			"componentType":5126,
			"count":2,
			"type":"VEC3"
		},
		{
			"bufferView":66,
			"componentType":5126,
			"count":2,
			"type":"VEC3"
		},
		{
			"bufferView":67,
			"componentType":5126,
			"count":147,
			"type":"VEC4"
		},
		{
			"bufferView":68,
			"componentType":5126,
			"count":2,
			"type":"VEC3"
		},
		{
			"bufferView":69,
			"componentType":5126,
			"count":2,
			"type":"VEC3"
		},
		{
			"bufferView":70,
			"componentType":5126,
			"count":2,
			"type":"VEC4"
		},
		{
			"bufferView":71,
			"componentType":5126,
			"count":2,
			"type":"VEC3"
		},
		{
			"bufferView":72,
			"componentType":5126,
			"count":2,
			"type":"VEC3"
		},
		{
			"bufferView":73,
			"componentType":5126,
			"count":147,
			"type":"VEC4"
		},
		{
			"bufferView":74,
			"componentType":5126,
			"count":2,
			"type":"VEC3"
		},
		{
			"bufferView":75,
			"componentType":5126,
			"count":2,
			"type":"VEC3"
		},
		{
			"bufferView":76,
			"componentType":5126,
			"count":147,
			"type":"VEC4"
		},
		{
			"bufferView":77,
			"componentType":5126,
			"count":2,
			"type":"VEC3"
		},
		{
			"bufferView":78,
			"componentType":5126,
			"count":2,
			"type":"VEC3"
		},
		{
			"bufferView":79,
			"componentType":5126,
			"count":147,
			"type":"VEC4"
		},
		{
			"bufferView":80,
			"componentType":5126,
			"count":2,
			"type":"VEC3"
		},
		{
			"bufferView":81,
			"componentType":5126,
			"count":2,
			"type":"VEC3"
		},
		{
			"bufferView":82,
			"componentType":5126,
			"count":2,
			"type":"VEC4"
		},
		{
			"bufferView":83,
			"componentType":5126,
			"count":2,
			"type":"VEC3"
		},
		{
			"bufferView":84,
			"componentType":5126,
			"count":2,
			"type":"VEC3"
		},
		{
			"bufferView":85,
			"componentType":5126,
			"count":147,
			"type":"VEC4"
		},
		{
			"bufferView":86,
			"componentType":5126,
			"count":2,
			"type":"VEC3"
		},
		{
			"bufferView":87,
			"componentType":5126,
			"count":2,
			"type":"VEC3"
		},
		{
			"bufferView":88,
			"componentType":5126,
			"count":147,
			"type":"VEC4"
		},
		{
			"bufferView":89,
			"componentType":5126,
			"count":2,
			"type":"VEC3"
		},
		{
			"bufferView":90,
			"componentType":5126,
			"count":147,
			"type":"VEC4"
		},
		{
			"bufferView":91,
			"componentType":5126,
			"count":2,
			"type":"VEC3"
		},
		{
			"bufferView":92,
			"componentType":5126,
			"count":2,
			"type":"VEC3"
		},
		{
			"bufferView":93,
			"componentType":5126,
			"count":2,
			"type":"VEC4"
		},
		{
			"bufferView":94,
			"componentType":5126,
			"count":2,
			"type":"VEC3"
		},
		{
			"bufferView":95,
			"componentType":5126,
			"count":2,
			"type":"VEC3"
		},
		{
			"bufferView":96,
			"componentType":5126,
			"count":147,
			"type":"VEC4"
		},
		{
			"bufferView":97,
			"componentType":5126,
			"count":2,
			"type":"VEC3"
		},
		{
			"bufferView":98,
			"componentType":5126,
			"count":2,
			"type":"VEC3"
		},
		{
			"bufferView":99,
			"componentType":5126,
			"count":147,
			"type":"VEC4"
		},
		{
			"bufferView":100,
			"componentType":5126,
			"count":2,
			"type":"VEC3"
		},
		{
			"bufferView":101,
			"componentType":5126,
			"count":2,
			"type":"VEC3"
		},
		{
			"bufferView":102,
			"componentType":5126,
			"count":147,
			"type":"VEC4"
		},
		{
			"bufferView":103,
			"componentType":5126,
			"count":2,
			"type":"VEC3"
		},
		{
			"bufferView":104,
			"componentType":5126,
			"count":147,
			"type":"VEC4"
		},
		{
			"bufferView":105,
			"componentType":5126,
			"count":2,
			"type":"VEC3"
		},
		{
			"bufferView":106,
			"componentType":5126,
			"count":2,
			"type":"VEC3"
		},
		{
			"bufferView":107,
			"componentType":5126,
			"count":147,
			"type":"VEC4"
		},
		{
			"bufferView":108,
			"componentType":5126,
			"count":2,
			"type":"VEC3"
		},
		{
			"bufferView":109,
			"componentType":5126,
			"count":2,
			"type":"VEC3"
		},
		{
			"bufferView":110,
			"componentType":5126,
			"count":147,
			"type":"VEC4"
		},
		{
			"bufferView":111,
			"componentType":5126,
			"count":2,
			"type":"VEC3"
		},
		{
			"bufferView":112,
			"componentType":5126,
			"count":2,
			"type":"VEC3"
		},
		{
			"bufferView":113,
			"componentType":5126,
			"count":147,
			"type":"VEC4"
		},
		{
			"bufferView":114,
			"componentType":5126,
			"count":2,
			"type":"VEC3"
		},
		{
			"bufferView":115,
			"componentType":5126,
			"count":2,
			"type":"VEC3"
		},
		{
			"bufferView":116,
			"componentType":5126,
			"count":2,
			"type":"VEC4"
		},
		{
			"bufferView":117,
			"componentType":5126,
			"count":2,
			"type":"VEC3"
		},
		{
			"bufferView":118,
			"componentType":5126,
			"count":2,
			"type":"VEC3"
		},
		{
			"bufferView":119,
			"componentType":5126,
			"count":147,
			"type":"VEC4"
		},
		{
			"bufferView":120,
			"componentType":5126,
			"count":2,
			"type":"VEC3"
		},
		{
			"bufferView":121,
			"componentType":5126,
			"count":2,
			"type":"VEC3"
		},
		{
			"bufferView":122,
			"componentType":5126,
			"count":147,
			"type":"VEC4"
		},
		{
			"bufferView":123,
			"componentType":5126,
			"count":2,
			"type":"VEC3"
		},
		{
			"bufferView":124,
			"componentType":5126,
			"count":2,
			"type":"VEC3"
		},
		{
			"bufferView":125,
			"componentType":5126,
			"count":147,
			"type":"VEC4"
		},
		{
			"bufferView":126,
			"componentType":5126,
			"count":2,
			"type":"VEC3"
		},
		{
			"bufferView":127,
			"componentType":5126,
			"count":2,
			"type":"VEC4"
		},
		{
			"bufferView":128,
			"componentType":5126,
			"count":2,
			"type":"VEC3"
		},
		{
			"bufferView":129,
			"componentType":5126,
			"count":2,
			"type":"VEC3"
		},
		{
			"bufferView":130,
			"componentType":5126,
			"count":147,
			"type":"VEC4"
		},
		{
			"bufferView":131,
			"componentType":5126,
			"count":2,
			"type":"VEC3"
		},
		{
			"bufferView":132,
			"componentType":5126,
			"count":2,
			"type":"VEC3"
		},
		{
			"bufferView":133,
			"componentType":5126,
			"count":147,
			"type":"VEC4"
		},
		{
			"bufferView":134,
			"componentType":5126,
			"count":2,
			"type":"VEC3"
		},
		{
			"bufferView":135,
			"componentType":5126,
			"count":2,
			"type":"VEC3"
		},
		{
			"bufferView":136,
			"componentType":5126,
			"count":147,
			"type":"VEC4"
		},
		{
			"bufferView":137,
			"componentType":5126,
			"count":2,
			"type":"VEC3"
		},
		{
			"bufferView":138,
			"componentType":5126,
			"count":2,
			"type":"VEC3"
		},
		{
			"bufferView":139,
			"componentType":5126,
			"count":2,
			"type":"VEC4"
		},
		{
			"bufferView":140,
			"componentType":5126,
			"count":2,
			"type":"VEC3"
		},
		{
			"bufferView":141,
			"componentType":5126,
			"count":2,
			"type":"VEC3"
		},
		{
			"bufferView":142,
			"componentType":5126,
			"count":147,
			"type":"VEC4"
		},
		{
			"bufferView":143,
			"componentType":5126,
			"count":2,
			"type":"VEC3"
		},
		{
			"bufferView":144,
			"componentType":5126,
			"count":2,
			"type":"VEC3"
		},
		{
			"bufferView":145,
			"componentType":5126,
			"count":147,
			"type":"VEC4"
		},
		{
			"bufferView":146,
			"componentType":5126,
			"count":2,
			"type":"VEC3"
		},
		{
			"bufferView":147,
			"componentType":5126,
			"count":2,
			"type":"VEC3"
		},
		{
			"bufferView":148,
			"componentType":5126,
			"count":147,
			"type":"VEC4"
		},
		{
			"bufferView":149,
			"componentType":5126,
			"count":2,
			"type":"VEC3"
		},
		{
			"bufferView":150,
			"componentType":5126,
			"count":2,
			"type":"VEC3"
		},
		{
			"bufferView":151,
			"componentType":5126,
			"count":2,
			"type":"VEC4"
		},
		{
			"bufferView":152,
			"componentType":5126,
			"count":2,
			"type":"VEC3"
		},
		{
			"bufferView":153,
			"componentType":5126,
			"count":2,
			"type":"VEC3"
		},
		{
			"bufferView":154,
			"componentType":5126,
			"count":147,
			"type":"VEC4"
		},
		{
			"bufferView":155,
			"componentType":5126,
			"count":2,
			"type":"VEC3"
		},
		{
			"bufferView":156,
			"componentType":5126,
			"count":2,
			"type":"VEC3"
		},
		{
			"bufferView":157,
			"componentType":5126,
			"count":147,
			"type":"VEC4"
		},
		{
			"bufferView":158,
			"componentType":5126,
			"count":2,
			"type":"VEC3"
		},
		{
			"bufferView":159,
			"componentType":5126,
			"count":2,
			"type":"VEC3"
		},
		{
			"bufferView":160,
			"componentType":5126,
			"count":147,
			"type":"VEC4"
		},
		{
			"bufferView":161,
			"componentType":5126,
			"count":2,
			"type":"VEC3"
		},
		{
			"bufferView":162,
			"componentType":5126,
			"count":2,
			"type":"VEC3"
		},
		{
			"bufferView":163,
			"componentType":5126,
			"count":2,
			"type":"VEC4"
		},
		{
			"bufferView":164,
			"componentType":5126,
			"count":2,
			"type":"VEC3"
		},
		{
			"bufferView":165,
			"componentType":5126,
			"count":147,
			"type":"VEC4"
		},
		{
			"bufferView":166,
			"componentType":5126,
			"count":2,
			"type":"VEC3"
		},
		{
			"bufferView":167,
			"componentType":5126,
			"count":2,
			"type":"VEC3"
		},
		{
			"bufferView":168,
			"componentType":5126,
			"count":147,
			"type":"VEC4"
		},
		{
			"bufferView":169,
			"componentType":5126,
			"count":2,
			"type":"VEC3"
		},
		{
			"bufferView":170,
			"componentType":5126,
			"count":2,
			"type":"VEC3"
		},
		{
			"bufferView":171,
			"componentType":5126,
			"count":147,
			"type":"VEC4"
		},
		{
			"bufferView":172,
			"componentType":5126,
			"count":2,
			"type":"VEC3"
		},
		{
			"bufferView":173,
			"componentType":5126,
			"count":2,
			"type":"VEC3"
		},
		{
			"bufferView":174,
			"componentType":5126,
			"count":147,
			"type":"VEC4"
		},
		{
			"bufferView":175,
			"componentType":5126,
			"count":2,
			"type":"VEC3"
		},
		{
			"bufferView":176,
			"componentType":5126,
			"count":2,
			"type":"VEC3"
		},
		{
			"bufferView":177,
			"componentType":5126,
			"count":2,
			"type":"VEC4"
		},
		{
			"bufferView":178,
			"componentType":5126,
			"count":2,
			"type":"VEC3"
		},
		{
			"bufferView":179,
			"componentType":5126,
			"count":2,
			"type":"VEC3"
		},
		{
			"bufferView":180,
			"componentType":5126,
			"count":147,
			"type":"VEC4"
		},
		{
			"bufferView":181,
			"componentType":5126,
			"count":2,
			"type":"VEC3"
		},
		{
			"bufferView":182,
			"componentType":5126,
			"count":2,
			"type":"VEC3"
		},
		{
			"bufferView":183,
			"componentType":5126,
			"count":147,
			"type":"VEC4"
		},
		{
			"bufferView":184,
			"componentType":5126,
			"count":2,
			"type":"VEC3"
		},
		{
			"bufferView":185,
			"componentType":5126,
			"count":2,
			"type":"VEC3"
		},
		{
			"bufferView":186,
			"componentType":5126,
			"count":147,
			"type":"VEC4"
		},
		{
			"bufferView":187,
			"componentType":5126,
			"count":2,
			"type":"VEC3"
		},
		{
			"bufferView":188,
			"componentType":5126,
			"count":2,
			"type":"VEC3"
		},
		{
			"bufferView":189,
			"componentType":5126,
			"count":147,
			"type":"VEC4"
		},
		{
			"bufferView":190,
			"componentType":5126,
			"count":2,
			"type":"VEC3"
		},
		{
			"bufferView":191,
			"componentType":5126,
			"count":2,
			"type":"VEC3"
		},
		{
			"bufferView":192,
			"componentType":5126,
			"count":2,
			"type":"VEC4"
		},
		{
			"bufferView":193,
			"componentType":5126,
			"count":2,
			"type":"VEC3"
		},
		{
			"bufferView":194,
			"componentType":5126,
			"count":2,
			"type":"VEC3"
		},
		{
			"bufferView":195,
			"componentType":5126,
			"count":2,
			"type":"VEC4"
		},
		{
			"bufferView":196,
			"componentType":5126,
			"count":2,
			"type":"VEC3"
		},
		{
			"bufferView":197,
			"componentType":5126,
			"count":2,
			"type":"VEC3"
		},
		{
			"bufferView":198,
			"componentType":5126,
			"count":2,
			"type":"VEC4"
		},
		{
			"bufferView":199,
			"componentType":5126,
			"count":2,
			"type":"VEC3"
		},
		{
			"bufferView":200,
			"componentType":5126,
			"count":69,
			"type":"MAT4"
		}
	],
	"bufferViews":[
		{
			"buffer":0,
			"byteLength":588,
			"byteOffset":0
		},
		{
			"buffer":0,
			"byteLength":1764,
			"byteOffset":588
		},
		{
			"buffer":0,
			"byteLength":2352,
			"byteOffset":2352
		},
		{
			"buffer":0,
			"byteLength":8,
			"byteOffset":4704
		},
		{
			"buffer":0,
			"byteLength":24,
			"byteOffset":4712
		},
		{
			"buffer":0,
			"byteLength":24,
			"byteOffset":4736
		},
		{
			"buffer":0,
			"byteLength":2352,
			"byteOffset":4760
		},
		{
			"buffer":0,
			"byteLength":24,
			"byteOffset":7112
		},
		{
			"buffer":0,
			"byteLength":24,
			"byteOffset":7136
		},
		{
			"buffer":0,
			"byteLength":2352,
			"byteOffset":7160
		},
		{
			"buffer":0,
			"byteLength":24,
			"byteOffset":9512
		},
		{
			"buffer":0,
			"byteLength":24,
			"byteOffset":9536
		},
		{
			"buffer":0,
			"byteLength":2352,
			"byteOffset":9560
		},
		{
			"buffer":0,
			"byteLength":24,
			"byteOffset":11912
		},
		{
			"buffer":0,
			"byteLength":24,
			"byteOffset":11936
		},
		{
			"buffer":0,
			"byteLength":2352,
			"byteOffset":11960
		},
		{
			"buffer":0,
			"byteLength":24,
			"byteOffset":14312
		},
		{
			"buffer":0,
			"byteLength":24,
			"byteOffset":14336
		},
		{
			"buffer":0,
			"byteLength":2352,
			"byteOffset":14360
		},
		{
			"buffer":0,
			"byteLength":24,
			"byteOffset":16712
		},
		{
			"buffer":0,
			"byteLength":24,
			"byteOffset":16736
		},
		{
			"buffer":0,
			"byteLength":32,
			"byteOffset":16760
		},
		{
			"buffer":0,
			"byteLength":24,
			"byteOffset":16792
		},
		{
			"buffer":0,
			"byteLength":24,
			"byteOffset":16816
		},
		{
			"buffer":0,
			"byteLength":24,
			"byteOffset":16840
		},
		{
			"buffer":0,
			"byteLength":24,
			"byteOffset":16864
		},
		{
			"buffer":0,
			"byteLength":2352,
			"byteOffset":16888
		},
		{
			"buffer":0,
			"byteLength":24,
			"byteOffset":19240
		},
		{
			"buffer":0,
			"byteLength":24,
			"byteOffset":19264
		},
		{
			"buffer":0,
			"byteLength":2352,
			"byteOffset":19288
		},
		{
			"buffer":0,
			"byteLength":24,
			"byteOffset":21640
		},
		{
			"buffer":0,
			"byteLength":24,
			"byteOffset":21664
		},
		{
			"buffer":0,
			"byteLength":2352,
			"byteOffset":21688
		},
		{
			"buffer":0,
			"byteLength":24,
			"byteOffset":24040
		},
		{
			"buffer":0,
			"byteLength":24,
			"byteOffset":24064
		},
		{
			"buffer":0,
			"byteLength":2352,
			"byteOffset":24088
		},
		{
			"buffer":0,
			"byteLength":24,
			"byteOffset":26440
		},
		{
			"buffer":0,
			"byteLength":24,
			"byteOffset":26464
		},
		{
			"buffer":0,
			"byteLength":2352,
			"byteOffset":26488
		},
		{
			"buffer":0,
			"byteLength":24,
			"byteOffset":28840
		},
		{
			"buffer":0,
			"byteLength":24,
			"byteOffset":28864
		},
		{
			"buffer":0,
			"byteLength":2352,
			"byteOffset":28888
		},
		{
			"buffer":0,
			"byteLength":24,
			"byteOffset":31240
		},
		{
			"buffer":0,
			"byteLength":24,
			"byteOffset":31264
		},
		{
			"buffer":0,
			"byteLength":2352,
			"byteOffset":31288
		},
		{
			"buffer":0,
			"byteLength":24,
			"byteOffset":33640
		},
		{
			"buffer":0,
			"byteLength":24,
			"byteOffset":33664
		},
		{
			"buffer":0,
			"byteLength":32,
			"byteOffset":33688
		},
		{
			"buffer":0,
			"byteLength":24,
			"byteOffset":33720
		},
		{
			"buffer":0,
			"byteLength":2352,
			"byteOffset":33744
		},
		{
			"buffer":0,
			"byteLength":24,
			"byteOffset":36096
		},
		{
			"buffer":0,
			"byteLength":24,
			"byteOffset":36120
		},
		{
			"buffer":0,
			"byteLength":2352,
			"byteOffset":36144
		},
		{
			"buffer":0,
			"byteLength":24,
			"byteOffset":38496
		},
		{
			"buffer":0,
			"byteLength":24,
			"byteOffset":38520
		},
		{
			"buffer":0,
			"byteLength":2352,
			"byteOffset":38544
		},
		{
			"buffer":0,
			"byteLength":24,
			"byteOffset":40896
		},
		{
			"buffer":0,
			"byteLength":24,
			"byteOffset":40920
		},
		{
			"buffer":0,
			"byteLength":32,
			"byteOffset":40944
		},
		{
			"buffer":0,
			"byteLength":24,
			"byteOffset":40976
		},
		{
			"buffer":0,
			"byteLength":24,
			"byteOffset":41000
		},
		{
			"buffer":0,
			"byteLength":2352,
			"byteOffset":41024
		},
		{
			"buffer":0,
			"byteLength":24,
			"byteOffset":43376
		},
		{
			"buffer":0,
			"byteLength":24,
			"byteOffset":43400
		},
		{
			"buffer":0,
			"byteLength":2352,
			"byteOffset":43424
		},
		{
			"buffer":0,
			"byteLength":24,
			"byteOffset":45776
		},
		{
			"buffer":0,
			"byteLength":24,
			"byteOffset":45800
		},
		{
			"buffer":0,
			"byteLength":2352,
			"byteOffset":45824
		},
		{
			"buffer":0,
			"byteLength":24,
			"byteOffset":48176
		},
		{
			"buffer":0,
			"byteLength":24,
			"byteOffset":48200
		},
		{
			"buffer":0,
			"byteLength":32,
			"byteOffset":48224
		},
		{
			"buffer":0,
			"byteLength":24,
			"byteOffset":48256
		},
		{
			"buffer":0,
			"byteLength":24,
			"byteOffset":48280
		},
		{
			"buffer":0,
			"byteLength":2352,
			"byteOffset":48304
		},
		{
			"buffer":0,
			"byteLength":24,
			"byteOffset":50656
		},
		{
			"buffer":0,
			"byteLength":24,
			"byteOffset":50680
		},
		{
			"buffer":0,
			"byteLength":2352,
			"byteOffset":50704
		},
		{
			"buffer":0,
			"byteLength":24,
			"byteOffset":53056
		},
		{
			"buffer":0,
			"byteLength":24,
			"byteOffset":53080
		},
		{
			"buffer":0,
			"byteLength":2352,
			"byteOffset":53104
		},
		{
			"buffer":0,
			"byteLength":24,
			"byteOffset":55456
		},
		{
			"buffer":0,
			"byteLength":24,
			"byteOffset":55480
		},
		{
			"buffer":0,
			"byteLength":32,
			"byteOffset":55504
		},
		{
			"buffer":0,
			"byteLength":24,
			"byteOffset":55536
		},
		{
			"buffer":0,
			"byteLength":24,
			"byteOffset":55560
		},
		{
			"buffer":0,
			"byteLength":2352,
			"byteOffset":55584
		},
		{
			"buffer":0,
			"byteLength":24,
			"byteOffset":57936
		},
		{
			"buffer":0,
			"byteLength":24,
			"byteOffset":57960
		},
		{
			"buffer":0,
			"byteLength":2352,
			"byteOffset":57984
		},
		{
			"buffer":0,
			"byteLength":24,
			"byteOffset":60336
		},
		{
			"buffer":0,
			"byteLength":2352,
			"byteOffset":60360
		},
		{
			"buffer":0,
			"byteLength":24,
			"byteOffset":62712
		},
		{
			"buffer":0,
			"byteLength":24,
			"byteOffset":62736
		},
		{
			"buffer":0,
			"byteLength":32,
			"byteOffset":62760
		},
		{
			"buffer":0,
			"byteLength":24,
			"byteOffset":62792
		},
		{
			"buffer":0,
			"byteLength":24,
			"byteOffset":62816
		},
		{
			"buffer":0,
			"byteLength":2352,
			"byteOffset":62840
		},
		{
			"buffer":0,
			"byteLength":24,
			"byteOffset":65192
		},
		{
			"buffer":0,
			"byteLength":24,
			"byteOffset":65216
		},
		{
			"buffer":0,
			"byteLength":2352,
			"byteOffset":65240
		},
		{
			"buffer":0,
			"byteLength":24,
			"byteOffset":67592
		},
		{
			"buffer":0,
			"byteLength":24,
			"byteOffset":67616
		},
		{
			"buffer":0,
			"byteLength":2352,
			"byteOffset":67640
		},
		{
			"buffer":0,
			"byteLength":24,
			"byteOffset":69992
		},
		{
			"buffer":0,
			"byteLength":2352,
			"byteOffset":70016
		},
		{
			"buffer":0,
			"byteLength":24,
			"byteOffset":72368
		},
		{
			"buffer":0,
			"byteLength":24,
			"byteOffset":72392
		},
		{
			"buffer":0,
			"byteLength":2352,
			"byteOffset":72416
		},
		{
			"buffer":0,
			"byteLength":24,
			"byteOffset":74768
		},
		{
			"buffer":0,
			"byteLength":24,
			"byteOffset":74792
		},
		{
			"buffer":0,
			"byteLength":2352,
			"byteOffset":74816
		},
		{
			"buffer":0,
			"byteLength":24,
			"byteOffset":77168
		},
		{
			"buffer":0,
			"byteLength":24,
			"byteOffset":77192
		},
		{
			"buffer":0,
			"byteLength":2352,
			"byteOffset":77216
		},
		{
			"buffer":0,
			"byteLength":24,
			"byteOffset":79568
		},
		{
			"buffer":0,
			"byteLength":24,
			"byteOffset":79592
		},
		{
			"buffer":0,
			"byteLength":32,
			"byteOffset":79616
		},
		{
			"buffer":0,
			"byteLength":24,
			"byteOffset":79648
		},
		{
			"buffer":0,
			"byteLength":24,
			"byteOffset":79672
		},
		{
			"buffer":0,
			"byteLength":2352,
			"byteOffset":79696
		},
		{
			"buffer":0,
			"byteLength":24,
			"byteOffset":82048
		},
		{
			"buffer":0,
			"byteLength":24,
			"byteOffset":82072
		},
		{
			"buffer":0,
			"byteLength":2352,
			"byteOffset":82096
		},
		{
			"buffer":0,
			"byteLength":24,
			"byteOffset":84448
		},
		{
			"buffer":0,
			"byteLength":24,
			"byteOffset":84472
		},
		{
			"buffer":0,
			"byteLength":2352,
			"byteOffset":84496
		},
		{
			"buffer":0,
			"byteLength":24,
			"byteOffset":86848
		},
		{
			"buffer":0,
			"byteLength":32,
			"byteOffset":86872
		},
		{
			"buffer":0,
			"byteLength":24,
			"byteOffset":86904
		},
		{
			"buffer":0,
			"byteLength":24,
			"byteOffset":86928
		},
		{
			"buffer":0,
			"byteLength":2352,
			"byteOffset":86952
		},
		{
			"buffer":0,
			"byteLength":24,
			"byteOffset":89304
		},
		{
			"buffer":0,
			"byteLength":24,
			"byteOffset":89328
		},
		{
			"buffer":0,
			"byteLength":2352,
			"byteOffset":89352
		},
		{
			"buffer":0,
			"byteLength":24,
			"byteOffset":91704
		},
		{
			"buffer":0,
			"byteLength":24,
			"byteOffset":91728
		},
		{
			"buffer":0,
			"byteLength":2352,
			"byteOffset":91752
		},
		{
			"buffer":0,
			"byteLength":24,
			"byteOffset":94104
		},
		{
			"buffer":0,
			"byteLength":24,
			"byteOffset":94128
		},
		{
			"buffer":0,
			"byteLength":32,
			"byteOffset":94152
		},
		{
			"buffer":0,
			"byteLength":24,
			"byteOffset":94184
		},
		{
			"buffer":0,
			"byteLength":24,
			"byteOffset":94208
		},
		{
			"buffer":0,
			"byteLength":2352,
			"byteOffset":94232
		},
		{
			"buffer":0,
			"byteLength":24,
			"byteOffset":96584
		},
		{
			"buffer":0,
			"byteLength":24,
			"byteOffset":96608
		},
		{
			"buffer":0,
			"byteLength":2352,
			"byteOffset":96632
		},
		{
			"buffer":0,
			"byteLength":24,
			"byteOffset":98984
		},
		{
			"buffer":0,
			"byteLength":24,
			"byteOffset":99008
		},
		{
			"buffer":0,
			"byteLength":2352,
			"byteOffset":99032
		},
		{
			"buffer":0,
			"byteLength":24,
			"byteOffset":101384
		},
		{
			"buffer":0,
			"byteLength":24,
			"byteOffset":101408
		},
		{
			"buffer":0,
			"byteLength":32,
			"byteOffset":101432
		},
		{
			"buffer":0,
			"byteLength":24,
			"byteOffset":101464
		},
		{
			"buffer":0,
			"byteLength":24,
			"byteOffset":101488
		},
		{
			"buffer":0,
			"byteLength":2352,
			"byteOffset":101512
		},
		{
			"buffer":0,
			"byteLength":24,
			"byteOffset":103864
		},
		{
			"buffer":0,
			"byteLength":24,
			"byteOffset":103888
		},
		{
			"buffer":0,
			"byteLength":2352,
			"byteOffset":103912
		},
		{
			"buffer":0,
			"byteLength":24,
			"byteOffset":106264
		},
		{
			"buffer":0,
			"byteLength":24,
			"byteOffset":106288
		},
		{
			"buffer":0,
			"byteLength":2352,
			"byteOffset":106312
		},
		{
			"buffer":0,
			"byteLength":24,
			"byteOffset":108664
		},
		{
			"buffer":0,
			"byteLength":24,
			"byteOffset":108688
		},
		{
			"buffer":0,
			"byteLength":32,
			"byteOffset":108712
		},
		{
			"buffer":0,
			"byteLength":24,
			"byteOffset":108744
		},
		{
			"buffer":0,
			"byteLength":2352,
			"byteOffset":108768
		},
		{
			"buffer":0,
			"byteLength":24,
			"byteOffset":111120
		},
		{
			"buffer":0,
			"byteLength":24,
			"byteOffset":111144
		},
		{
			"buffer":0,
			"byteLength":2352,
			"byteOffset":111168
		},
		{
			"buffer":0,
			"byteLength":24,
			"byteOffset":113520
		},
		{
			"buffer":0,
			"byteLength":24,
			"byteOffset":113544
		},
		{
			"buffer":0,
			"byteLength":2352,
			"byteOffset":113568
		},
		{
			"buffer":0,
			"byteLength":24,
			"byteOffset":115920
		},
		{
			"buffer":0,
			"byteLength":24,
			"byteOffset":115944
		},
		{
			"buffer":0,
			"byteLength":2352,
			"byteOffset":115968
		},
		{
			"buffer":0,
			"byteLength":24,
			"byteOffset":118320
		},
		{
			"buffer":0,
			"byteLength":24,
			"byteOffset":118344
		},
		{
			"buffer":0,
			"byteLength":32,
			"byteOffset":118368
		},
		{
			"buffer":0,
			"byteLength":24,
			"byteOffset":118400
		},
		{
			"buffer":0,
			"byteLength":24,
			"byteOffset":118424
		},
		{
			"buffer":0,
			"byteLength":2352,
			"byteOffset":118448
		},
		{
			"buffer":0,
			"byteLength":24,
			"byteOffset":120800
		},
		{
			"buffer":0,
			"byteLength":24,
			"byteOffset":120824
		},
		{
			"buffer":0,
			"byteLength":2352,
			"byteOffset":120848
		},
		{
			"buffer":0,
			"byteLength":24,
			"byteOffset":123200
		},
		{
			"buffer":0,
			"byteLength":24,
			"byteOffset":123224
		},
		{
			"buffer":0,
			"byteLength":2352,
			"byteOffset":123248
		},
		{
			"buffer":0,
			"byteLength":24,
			"byteOffset":125600
		},
		{
			"buffer":0,
			"byteLength":24,
			"byteOffset":125624
		},
		{
			"buffer":0,
			"byteLength":2352,
			"byteOffset":125648
		},
		{
			"buffer":0,
			"byteLength":24,
			"byteOffset":128000
		},
		{
			"buffer":0,
			"byteLength":24,
			"byteOffset":128024
		},
		{
			"buffer":0,
			"byteLength":32,
			"byteOffset":128048
		},
		{
			"buffer":0,
			"byteLength":24,
			"byteOffset":128080
		},
		{
			"buffer":0,
			"byteLength":24,
			"byteOffset":128104
		},
		{
			"buffer":0,
			"byteLength":32,
			"byteOffset":128128
		},
		{
			"buffer":0,
			"byteLength":24,
			"byteOffset":128160
		},
		{
			"buffer":0,
			"byteLength":24,
			"byteOffset":128184
		},
		{
			"buffer":0,
			"byteLength":32,
			"byteOffset":128208
		},
		{
			"buffer":0,
			"byteLength":24,
			"byteOffset":128240
		},
		{
			"buffer":0,
			"byteLength":4416,
			"byteOffset":128264
		}
	],
	"buffers":[
		{
			"byteLength":132680,
			"uri":"modelThrowOb.bin"
		}
	]
}
